{
.appVersion = "3072";
customParameters = (
{
name = fsType;
value = (
);
},
{
name = "Use Typo Metrics";
value = 1;
},
{
name = license;
value = "This Font Software is licensed under the SIL Open Font License, Version 1.1. This license is available with a FAQ at: https://scripts.sil.org/OFL";
},
{
name = licenseURL;
value = "https://scripts.sil.org/OFL";
}
);
date = "2016-01-23 07:08:50 +0000";
designer = "Simon Cozens";
familyName = Taronga;
featurePrefixes = (
{
automatic = 1;
code = "languagesystem DFLT dflt;\012";
name = Languagesystems;
}
);
features = (
{
automatic = 1;
code = "feature swsh;\012";
name = aalt;
},
{
code = "sub f t by f_t;\012#sub t t by t_t;\012";
name = dlig;
},
{
automatic = 1;
code = "lookup ccmp_Other_1 {\012	@CombiningTopAccents = [acutecomb circumflexcomb dieresiscomb dotaccentcomb gravecomb];\012	sub [i j]' @CombiningTopAccents by [idotless jdotless];\012} ccmp_Other_1;\012";
name = ccmp;
},
{
automatic = 1;
code = "lookupflag IgnoreMarks;\012sub f f by f_f;\012";
name = liga;
},
{
automatic = 1;
code = "sub f by f.swsh;\012";
name = swsh;
}
);
fontMaster = (
{
alignmentZones = (
"{500, 15}",
"{-10, 10}"
);
ascender = 900;
capHeight = 720;
customParameters = (
{
name = winAscent;
value = 936;
},
{
name = winDescent;
value = 309;
}
);
descender = -300;
id = "93816207-4067-4C42-B3DC-B8F9D15DA403";
userData = {
GSCornerRadius = 20;
GSRoughenHorizontal = 3;
GSRoughenSegmentLength = 3;
GSRoughenVertical = 3;
angle = 17;
height = 0;
width = 87;
};
xHeight = 500;
}
);
glyphs = (
{
glyphname = A;
lastChange = "2017-08-26 11:24:55 +0000";
layers = (
{
anchors = (
{
name = bottom;
position = "{348, 0}";
},
{
name = ogonek;
position = "{626, 10}";
},
{
name = top;
position = "{348, 720}";
}
);
layerId = "93816207-4067-4C42-B3DC-B8F9D15DA403";
paths = (
{
closed = 1;
nodes = (
"351 497 OFFCURVE",
"505 139 OFFCURVE",
"567 5 CURVE SMOOTH",
"573 -8 OFFCURVE",
"602 -14 OFFCURVE",
"621 -8 CURVE SMOOTH",
"646 0 OFFCURVE",
"657 19 OFFCURVE",
"650 33 CURVE",
"571 208 OFFCURVE",
"472 430 OFFCURVE",
"365 698 CURVE SMOOTH",
"359 713 OFFCURVE",
"343 720 OFFCURVE",
"333 720 CURVE SMOOTH",
"311 720 OFFCURVE",
"275 691 OFFCURVE",
"286 663 CURVE SMOOTH"
);
},
{
closed = 1;
nodes = (
"38 -10 OFFCURVE",
"90 -37 OFFCURVE",
"97 -13 CURVE SMOOTH",
"111 37 OFFCURVE",
"301 532 OFFCURVE",
"358 664 CURVE SMOOTH",
"365 681 OFFCURVE",
"352 684 OFFCURVE",
"331 688 CURVE SMOOTH",
"320 690 OFFCURVE",
"297 684 OFFCURVE",
"292 683 CURVE",
"248 537 OFFCURVE",
"67 109 OFFCURVE",
"44 19 CURVE"
);
},
{
closed = 1;
nodes = (
"147 274 OFFCURVE",
"122 219 OFFCURVE",
"127 218 CURVE SMOOTH",
"186 206 OFFCURVE",
"393 216 OFFCURVE",
"504 228 CURVE SMOOTH",
"513 229 OFFCURVE",
"534 297 OFFCURVE",
"529 297 CURVE SMOOTH",
"465 297 OFFCURVE",
"197 284 OFFCURVE",
"152 275 CURVE SMOOTH"
);
}
);
width = 696;
}
);
leftKerningGroup = A;
rightKerningGroup = A;
unicode = 0041;
},
{
glyphname = B;
lastChange = "2018-01-19 19:59:42 +0000";
layers = (
{
components = (
{
alignment = -1;
name = I;
transform = "{1, 0, 0, 1, -12, 0}";
}
);
layerId = "93816207-4067-4C42-B3DC-B8F9D15DA403";
paths = (
{
closed = 1;
nodes = (
"110 629 LINE",
"143 655 OFFCURVE",
"193 692 OFFCURVE",
"265 688 CURVE SMOOTH",
"369 682 OFFCURVE",
"392 618 OFFCURVE",
"392 571 CURVE SMOOTH",
"392 521 OFFCURVE",
"366 465 OFFCURVE",
"267 450 CURVE SMOOTH",
"214 442 OFFCURVE",
"168 450 OFFCURVE",
"131 455 CURVE",
"131 406 LINE",
"145 405 OFFCURVE",
"225 400 OFFCURVE",
"272 403 CURVE SMOOTH",
"365 409 OFFCURVE",
"467 457 OFFCURVE",
"467 577 CURVE SMOOTH",
"467 703 OFFCURVE",
"357 743 OFFCURVE",
"280 747 CURVE SMOOTH",
"231 749 OFFCURVE",
"141 746 OFFCURVE",
"110 716 CURVE"
);
},
{
closed = 1;
nodes = (
"143 377 LINE",
"155 389 OFFCURVE",
"297 404 OFFCURVE",
"342 403 CURVE SMOOTH",
"425 401 OFFCURVE",
"462 336 OFFCURVE",
"462 229 CURVE SMOOTH",
"462 72 OFFCURVE",
"382 50 OFFCURVE",
"307 46 CURVE SMOOTH",
"266 44 OFFCURVE",
"158 45 OFFCURVE",
"121 50 CURVE",
"121 -4 LINE",
"129 -5 OFFCURVE",
"219 -7 OFFCURVE",
"254 -7 CURVE SMOOTH",
"457 -7 OFFCURVE",
"547 59 OFFCURVE",
"547 211 CURVE SMOOTH",
"547 365 OFFCURVE",
"455 455 OFFCURVE",
"339 455 CURVE SMOOTH",
"298 455 OFFCURVE",
"152 444 OFFCURVE",
"143 432 CURVE"
);
}
);
width = 613;
}
);
leftKerningGroup = H;
rightKerningGroup = B;
unicode = 0042;
},
{
glyphname = C;
lastChange = "2017-08-24 11:27:36 +0000";
layers = (
{
background = {
paths = (
{
closed = 1;
nodes = (
"672 555 OFFCURVE",
"557 730 OFFCURVE",
"369 730 CURVE SMOOTH",
"194 730 OFFCURVE",
"66 577 OFFCURVE",
"66 342 CURVE SMOOTH",
"66 119 OFFCURVE",
"182 -10 OFFCURVE",
"352 -10 CURVE SMOOTH",
"571 -10 OFFCURVE",
"672 202 OFFCURVE",
"672 373 CURVE SMOOTH"
);
},
{
closed = 1;
nodes = (
"586 197 OFFCURVE",
"514 56 OFFCURVE",
"380 56 CURVE SMOOTH",
"255 56 OFFCURVE",
"149 181 OFFCURVE",
"149 382 CURVE SMOOTH",
"149 553 OFFCURVE",
"226 665 OFFCURVE",
"353 665 CURVE SMOOTH",
"492 665 OFFCURVE",
"586 533 OFFCURVE",
"586 354 CURVE SMOOTH"
);
}
);
};
layerId = "93816207-4067-4C42-B3DC-B8F9D15DA403";
paths = (
{
closed = 1;
nodes = (
"252 53 OFFCURVE",
"149 178 OFFCURVE",
"149 383 CURVE SMOOTH",
"149 555 OFFCURVE",
"221 665 OFFCURVE",
"364 665 CURVE SMOOTH",
"446 665 OFFCURVE",
"481 629 OFFCURVE",
"514 595 CURVE SMOOTH",
"530 578 OFFCURVE",
"547 582 OFFCURVE",
"558 586 CURVE SMOOTH",
"584 595 OFFCURVE",
"588 602 OFFCURVE",
"588 608 CURVE SMOOTH",
"588 636 OFFCURVE",
"500 730 OFFCURVE",
"367 730 CURVE SMOOTH",
"196 730 OFFCURVE",
"66 577 OFFCURVE",
"66 341 CURVE SMOOTH",
"66 119 OFFCURVE",
"181 -10 OFFCURVE",
"355 -10 CURVE SMOOTH",
"504 -10 OFFCURVE",
"583 85 OFFCURVE",
"583 134 CURVE SMOOTH",
"583 144 OFFCURVE",
"580 145 OFFCURVE",
"578 145 CURVE SMOOTH",
"559 145 OFFCURVE",
"503 53 OFFCURVE",
"387 53 CURVE SMOOTH"
);
}
);
width = 643;
}
);
leftKerningGroup = O;
rightKerningGroup = C;
unicode = 0043;
},
{
glyphname = D;
lastChange = "2018-01-19 19:59:33 +0000";
layers = (
{
components = (
{
name = I;
transform = "{1, 0, 0, 1.0062, -10, 0}";
}
);
layerId = "93816207-4067-4C42-B3DC-B8F9D15DA403";
paths = (
{
closed = 1;
nodes = (
"120 660 LINE",
"139 669 OFFCURVE",
"176 684 OFFCURVE",
"267 684 CURVE SMOOTH",
"432 684 OFFCURVE",
"522 631 OFFCURVE",
"522 409 CURVE SMOOTH",
"522 132 OFFCURVE",
"383 60 OFFCURVE",
"307 49 CURVE SMOOTH",
"260 42 OFFCURVE",
"158 48 OFFCURVE",
"121 53 CURVE",
"121 -4 LINE",
"135 -5 OFFCURVE",
"221 -13 OFFCURVE",
"292 -7 CURVE SMOOTH",
"492 10 OFFCURVE",
"607 142 OFFCURVE",
"607 397 CURVE SMOOTH",
"607 628 OFFCURVE",
"513 745 OFFCURVE",
"339 745 CURVE SMOOTH",
"172 745 OFFCURVE",
"140 741 OFFCURVE",
"120 728 CURVE"
);
}
);
width = 673;
}
);
leftKerningGroup = H;
rightKerningGroup = O;
unicode = 0044;
},
{
glyphname = E;
lastChange = "2017-08-24 11:27:36 +0000";
layers = (
{
hints = (
{
origin = "{3, 2}";
scale = "{1, 0.8454}";
type = Cap;
name = _cap.tail;
}
);
layerId = "93816207-4067-4C42-B3DC-B8F9D15DA403";
paths = (
{
closed = 1;
nodes = (
"151 717 OFFCURVE",
"126 662 OFFCURVE",
"131 661 CURVE SMOOTH",
"172 653 OFFCURVE",
"232 654 OFFCURVE",
"468 658 CURVE SMOOTH",
"477 658 OFFCURVE",
"498 727 OFFCURVE",
"493 727 CURVE SMOOTH",
"429 727 OFFCURVE",
"201 727 OFFCURVE",
"156 718 CURVE SMOOTH"
);
},
{
closed = 1;
nodes = (
"132 445 OFFCURVE",
"107 390 OFFCURVE",
"112 389 CURVE SMOOTH",
"171 377 OFFCURVE",
"308 382 OFFCURVE",
"419 394 CURVE SMOOTH",
"428 395 OFFCURVE",
"449 463 OFFCURVE",
"444 463 CURVE SMOOTH",
"380 463 OFFCURVE",
"182 455 OFFCURVE",
"137 446 CURVE SMOOTH"
);
},
{
closed = 1;
nodes = (
"142 55 OFFCURVE",
"117 0 OFFCURVE",
"122 -1 CURVE SMOOTH",
"181 -13 OFFCURVE",
"378 -6 OFFCURVE",
"489 6 CURVE SMOOTH",
"498 7 OFFCURVE",
"519 75 OFFCURVE",
"514 75 CURVE SMOOTH",
"450 75 OFFCURVE",
"192 65 OFFCURVE",
"147 56 CURVE SMOOTH"
);
},
{
closed = 1;
nodes = (
"110 -2 LINE",
"190 -2 LINE",
"190 708 LINE",
"110 708 LINE"
);
}
);
width = 548;
}
);
leftKerningGroup = H;
rightKerningGroup = E;
unicode = 0045;
},
{
glyphname = F;
lastChange = "2018-01-19 11:15:18 +0000";
layers = (
{
components = (
{
name = l;
transform = "{1, 0, 0, 0.8454, -4, -2}";
}
);
layerId = "93816207-4067-4C42-B3DC-B8F9D15DA403";
paths = (
{
closed = 1;
nodes = (
"135 375 OFFCURVE",
"110 320 OFFCURVE",
"115 319 CURVE SMOOTH",
"174 307 OFFCURVE",
"287 317 OFFCURVE",
"398 329 CURVE SMOOTH",
"407 330 OFFCURVE",
"428 398 OFFCURVE",
"423 398 CURVE SMOOTH",
"359 398 OFFCURVE",
"185 385 OFFCURVE",
"140 376 CURVE SMOOTH"
);
},
{
closed = 1;
nodes = (
"159 717 OFFCURVE",
"134 662 OFFCURVE",
"139 661 CURVE SMOOTH",
"198 649 OFFCURVE",
"365 661 OFFCURVE",
"476 661 CURVE SMOOTH",
"485 661 OFFCURVE",
"506 730 OFFCURVE",
"501 730 CURVE SMOOTH",
"437 730 OFFCURVE",
"209 727 OFFCURVE",
"164 718 CURVE SMOOTH"
);
}
);
width = 524;
}
);
leftKerningGroup = H;
rightKerningGroup = F;
unicode = 0046;
},
{
glyphname = G;
lastChange = "2021-06-27 14:19:58 +0000";
layers = (
{
layerId = "93816207-4067-4C42-B3DC-B8F9D15DA403";
paths = (
{
closed = 1;
nodes = (
"66 120 OFFCURVE",
"178 -10 OFFCURVE",
"369 -10 CURVE SMOOTH",
"505 -10 OFFCURVE",
"629 44 OFFCURVE",
"629 104 CURVE SMOOTH",
"629 347 LINE SMOOTH",
"629 358 OFFCURVE",
"620 368 OFFCURVE",
"608 366 CURVE SMOOTH",
"549 358 OFFCURVE",
"526 364 OFFCURVE",
"451 364 CURVE SMOOTH",
"435 364 OFFCURVE",
"419 307 OFFCURVE",
"436 307 CURVE SMOOTH",
"474 307 OFFCURVE",
"513 307 OFFCURVE",
"534 307 CURVE SMOOTH",
"544 307 OFFCURVE",
"549 302 OFFCURVE",
"549 293 CURVE SMOOTH",
"549 103 LINE SMOOTH",
"549 72 OFFCURVE",
"456 53 OFFCURVE",
"396 53 CURVE SMOOTH",
"252 53 OFFCURVE",
"149 175 OFFCURVE",
"149 387 CURVE SMOOTH",
"149 565 OFFCURVE",
"221 665 OFFCURVE",
"394 665 CURVE SMOOTH",
"485 665 OFFCURVE",
"512 637 OFFCURVE",
"528 621 CURVE SMOOTH",
"534 615 LINE SMOOTH",
"550 600 OFFCURVE",
"560 600 OFFCURVE",
"578 606 CURVE SMOOTH",
"606 615 OFFCURVE",
"608 624 OFFCURVE",
"608 628 CURVE SMOOTH",
"608 658 OFFCURVE",
"520 730 OFFCURVE",
"387 730 CURVE SMOOTH",
"192 730 OFFCURVE",
"66 578 OFFCURVE",
"66 342 CURVE SMOOTH"
);
}
);
width = 690;
}
);
leftKerningGroup = O;
rightKerningGroup = G;
unicode = 0047;
},
{
color = 1;
glyphname = H;
lastChange = "2018-01-19 11:16:47 +0000";
layers = (
{
components = (
{
name = l;
transform = "{1, 0, 0, 0.8454, 437, 0}";
},
{
name = l;
transform = "{1, 0, 0, 0.8454, 5, 0}";
}
);
layerId = "93816207-4067-4C42-B3DC-B8F9D15DA403";
paths = (
{
closed = 1;
nodes = (
"155 445 OFFCURVE",
"130 390 OFFCURVE",
"135 389 CURVE SMOOTH",
"194 377 OFFCURVE",
"461 387 OFFCURVE",
"572 399 CURVE SMOOTH",
"581 400 OFFCURVE",
"602 468 OFFCURVE",
"597 468 CURVE SMOOTH",
"533 468 OFFCURVE",
"205 455 OFFCURVE",
"160 446 CURVE SMOOTH"
);
}
);
width = 720;
}
);
leftKerningGroup = H;
rightKerningGroup = H;
unicode = 0048;
},
{
glyphname = I;
lastChange = "2018-01-19 19:53:28 +0000";
layers = (
{
background = {
paths = (
{
closed = 1;
nodes = (
"-43 542 OFFCURVE",
"-43 471 OFFCURVE",
"-43 338 CURVE SMOOTH",
"-43 259 OFFCURVE",
"-43 82 OFFCURVE",
"-43 0 CURVE SMOOTH",
"-43 -31 OFFCURVE",
"37 -3 OFFCURVE",
"37 26 CURVE SMOOTH",
"37 158 OFFCURVE",
"37 392 OFFCURVE",
"37 528 CURVE SMOOTH",
"37 607 OFFCURVE",
"37 621 OFFCURVE",
"37 700 CURVE SMOOTH",
"37 734 OFFCURVE",
"-43 706 OFFCURVE",
"-43 675 CURVE SMOOTH"
);
}
);
};
layerId = "93816207-4067-4C42-B3DC-B8F9D15DA403";
paths = (
{
closed = 1;
nodes = (
"110 566 OFFCURVE",
"110 460 OFFCURVE",
"110 327 CURVE SMOOTH",
"110 248 OFFCURVE",
"110 81 OFFCURVE",
"110 -1 CURVE SMOOTH",
"110 -32 OFFCURVE",
"190 -4 OFFCURVE",
"190 25 CURVE SMOOTH",
"190 157 OFFCURVE",
"190 381 OFFCURVE",
"190 517 CURVE SMOOTH",
"190 596 OFFCURVE",
"190 641 OFFCURVE",
"190 720 CURVE SMOOTH",
"190 754 OFFCURVE",
"110 726 OFFCURVE",
"110 699 CURVE SMOOTH"
);
}
);
width = 300;
}
);
leftKerningGroup = H;
rightKerningGroup = H;
unicode = 0049;
},
{
glyphname = J;
lastChange = "2018-01-19 11:19:04 +0000";
layers = (
{
anchors = (
{
name = bottom;
position = "{190, 22}";
}
);
components = (
{
name = l;
transform = "{1, 0, 0, 0.8704, 26, -16}";
}
);
layerId = "93816207-4067-4C42-B3DC-B8F9D15DA403";
paths = (
{
closed = 1;
nodes = (
"-246 -256 OFFCURVE",
"-157 -310 OFFCURVE",
"-33 -308 CURVE SMOOTH",
"70 -306 OFFCURVE",
"165 -256 OFFCURVE",
"181 -149 CURVE SMOOTH",
"186 -116 OFFCURVE",
"191 -18 OFFCURVE",
"190 25 CURVE",
"110 25 LINE",
"110 -87 OFFCURVE",
"104 -114 OFFCURVE",
"99 -142 CURVE SMOOTH",
"87 -210 OFFCURVE",
"46 -252 OFFCURVE",
"-47 -252 CURVE SMOOTH",
"-93 -252 OFFCURVE",
"-141 -238 OFFCURVE",
"-179 -185 CURVE SMOOTH",
"-184 -178 OFFCURVE",
"-183 -175 OFFCURVE",
"-187 -175 CURVE SMOOTH",
"-206 -175 OFFCURVE",
"-246 -198 OFFCURVE",
"-246 -215 CURVE SMOOTH"
);
}
);
width = 300;
}
);
leftKerningGroup = J;
rightKerningGroup = J;
unicode = 004A;
},
{
glyphname = K;
lastChange = "2018-01-19 19:55:18 +0000";
layers = (
{
components = (
{
name = I;
}
);
layerId = "93816207-4067-4C42-B3DC-B8F9D15DA403";
paths = (
{
closed = 1;
nodes = (
"448 0 LINE",
"456 -23 OFFCURVE",
"564 -3 OFFCURVE",
"554 16 CURVE",
"199 390 LINE",
"183 424 OFFCURVE",
"124 365 OFFCURVE",
"138 334 CURVE"
);
},
{
closed = 1;
nodes = (
"322 576 OFFCURVE",
"194 438 OFFCURVE",
"145 362 CURVE SMOOTH",
"126 332 OFFCURVE",
"127 258 OFFCURVE",
"146 279 CURVE SMOOTH",
"248 395 OFFCURVE",
"353 519 OFFCURVE",
"482 668 CURVE SMOOTH",
"506 696 OFFCURVE",
"484 744 OFFCURVE",
"456 715 CURVE SMOOTH"
);
}
);
width = 566;
}
);
leftKerningGroup = H;
rightKerningGroup = K;
unicode = 004B;
},
{
color = 1;
glyphname = L;
lastChange = "2018-01-06 11:04:50 +0000";
layers = (
{
hints = (
{
origin = "{1, 2}";
target = "{1, 3}";
type = Cap;
name = _cap.tail;
}
);
layerId = "93816207-4067-4C42-B3DC-B8F9D15DA403";
paths = (
{
closed = 1;
nodes = (
"104 -1 LINE",
"163 -13 OFFCURVE",
"314 -12 OFFCURVE",
"451 0 CURVE SMOOTH",
"460 1 OFFCURVE",
"481 69 OFFCURVE",
"476 69 CURVE SMOOTH",
"412 69 OFFCURVE",
"174 65 OFFCURVE",
"129 56 CURVE"
);
},
{
closed = 1;
nodes = (
"104 0 LINE",
"184 0 LINE",
"184 708 LINE",
"104 708 LINE"
);
}
);
width = 519;
}
);
leftKerningGroup = H;
rightKerningGroup = L;
unicode = 004C;
},
{
glyphname = M;
lastChange = "2018-01-19 11:17:52 +0000";
layers = (
{
components = (
{
name = l;
transform = "{1, 0, 0, 0.8454, 31, 0}";
},
{
name = l;
transform = "{1, 0, 0, 0.8454, 571, 0}";
}
);
layerId = "93816207-4067-4C42-B3DC-B8F9D15DA403";
paths = (
{
closed = 1;
nodes = (
"198 518 OFFCURVE",
"330 216 OFFCURVE",
"388 100 CURVE SMOOTH",
"393 90 OFFCURVE",
"402 87 OFFCURVE",
"424 87 CURVE SMOOTH",
"446 87 OFFCURVE",
"450 87 OFFCURVE",
"462 100 CURVE",
"331 391 OFFCURVE",
"252 573 OFFCURVE",
"194 705 CURVE SMOOTH",
"188 718 OFFCURVE",
"186 719 OFFCURVE",
"180 719 CURVE SMOOTH",
"167 719 OFFCURVE",
"140 645 OFFCURVE",
"152 619 CURVE SMOOTH"
);
},
{
closed = 1;
nodes = (
"711 645 OFFCURVE",
"684 709 OFFCURVE",
"671 709 CURVE SMOOTH",
"665 709 OFFCURVE",
"657 705 OFFCURVE",
"651 692 CURVE SMOOTH",
"598 576 OFFCURVE",
"531 438 OFFCURVE",
"399 100 CURVE",
"411 87 OFFCURVE",
"405 87 OFFCURVE",
"427 87 CURVE SMOOTH",
"449 87 OFFCURVE",
"456 90 OFFCURVE",
"461 100 CURVE SMOOTH",
"520 218 OFFCURVE",
"652 518 OFFCURVE",
"699 619 CURVE SMOOTH"
);
}
);
width = 840;
}
);
leftKerningGroup = M;
rightKerningGroup = M;
unicode = 004D;
},
{
glyphname = N;
lastChange = "2018-01-19 11:15:18 +0000";
layers = (
{
components = (
{
name = l;
transform = "{1, 0, 0, 0.8454, -4, 0}";
}
);
hints = (
{
origin = "{0, 9}";
target = "{0, 10}";
type = Cap;
name = _cap.tail;
}
);
layerId = "93816207-4067-4C42-B3DC-B8F9D15DA403";
paths = (
{
closed = 1;
nodes = (
"219 463 OFFCURVE",
"501 101 OFFCURVE",
"568 0 CURVE SMOOTH",
"574 -9 OFFCURVE",
"582 -13 OFFCURVE",
"604 -13 CURVE SMOOTH",
"626 -13 OFFCURVE",
"630 -13 OFFCURVE",
"642 0 CURVE",
"642 710 LINE",
"562 710 LINE",
"562 148 LINE",
"438 328 OFFCURVE",
"271 530 OFFCURVE",
"194 705 CURVE SMOOTH",
"188 718 OFFCURVE",
"186 719 OFFCURVE",
"180 719 CURVE SMOOTH",
"167 719 OFFCURVE",
"101 684 OFFCURVE",
"114 659 CURVE SMOOTH"
);
}
);
width = 752;
}
);
leftKerningGroup = H;
rightKerningGroup = H;
unicode = 004E;
},
{
glyphname = O;
lastChange = "2017-08-24 11:27:36 +0000";
layers = (
{
layerId = "93816207-4067-4C42-B3DC-B8F9D15DA403";
paths = (
{
closed = 1;
nodes = (
"672 555 OFFCURVE",
"557 730 OFFCURVE",
"369 730 CURVE SMOOTH",
"194 730 OFFCURVE",
"66 577 OFFCURVE",
"66 342 CURVE SMOOTH",
"66 119 OFFCURVE",
"182 -10 OFFCURVE",
"352 -10 CURVE SMOOTH",
"571 -10 OFFCURVE",
"672 202 OFFCURVE",
"672 373 CURVE SMOOTH"
);
},
{
closed = 1;
nodes = (
"586 197 OFFCURVE",
"514 56 OFFCURVE",
"380 56 CURVE SMOOTH",
"255 56 OFFCURVE",
"149 181 OFFCURVE",
"149 382 CURVE SMOOTH",
"149 553 OFFCURVE",
"226 665 OFFCURVE",
"353 665 CURVE SMOOTH",
"492 665 OFFCURVE",
"586 533 OFFCURVE",
"586 354 CURVE SMOOTH"
);
}
);
width = 738;
}
);
leftKerningGroup = O;
rightKerningGroup = O;
unicode = 004F;
},
{
glyphname = P;
lastChange = "2017-08-24 11:27:36 +0000";
layers = (
{
layerId = "93816207-4067-4C42-B3DC-B8F9D15DA403";
paths = (
{
closed = 1;
nodes = (
"421 750 OFFCURVE",
"178 734 CURVE SMOOTH",
"147 732 OFFCURVE",
"110 728 OFFCURVE",
"110 701 CURVE SMOOTH",
"110 0 LINE SMOOTH",
"110 -8 OFFCURVE",
"117 -12 OFFCURVE",
"129 -12 CURVE SMOOTH",
"151 -12 OFFCURVE",
"190 3 OFFCURVE",
"190 21 CURVE SMOOTH",
"190 274 LINE",
"382 259 OFFCURVE",
"536 344 OFFCURVE",
"536 532 CURVE SMOOTH",
"536 695 OFFCURVE"
);
},
{
closed = 1;
nodes = (
"343 299 OFFCURVE",
"190 338 CURVE",
"190 663 LINE",
"202 664 OFFCURVE",
"263 669 OFFCURVE",
"293 669 CURVE SMOOTH",
"436 669 OFFCURVE",
"452 570 OFFCURVE",
"452 512 CURVE SMOOTH",
"452 355 OFFCURVE"
);
}
);
width = 558;
}
);
leftKerningGroup = H;
rightKerningGroup = P;
unicode = 0050;
},
{
glyphname = Q;
lastChange = "2018-01-19 11:27:38 +0000";
layers = (
{
background = {
paths = (
{
closed = 1;
nodes = (
"66 128 OFFCURVE",
"166 7 OFFCURVE",
"331 -9 CURVE SMOOTH",
"494 -25 OFFCURVE",
"640 -62 OFFCURVE",
"725 -55 CURVE SMOOTH",
"740 -54 OFFCURVE",
"751 -42 OFFCURVE",
"750 -25 CURVE SMOOTH",
"749 -2 OFFCURVE",
"742 25 OFFCURVE",
"726 21 CURVE SMOOTH",
"631 -3 OFFCURVE",
"572 14 OFFCURVE",
"502 30 CURVE",
"618 100 OFFCURVE",
"672 247 OFFCURVE",
"672 373 CURVE SMOOTH",
"672 555 OFFCURVE",
"557 730 OFFCURVE",
"369 730 CURVE SMOOTH",
"194 730 OFFCURVE",
"66 577 OFFCURVE",
"66 342 CURVE SMOOTH"
);
},
{
closed = 1;
nodes = (
"149 553 OFFCURVE",
"226 660 OFFCURVE",
"353 660 CURVE SMOOTH",
"492 660 OFFCURVE",
"586 533 OFFCURVE",
"586 354 CURVE SMOOTH",
"586 197 OFFCURVE",
"514 63 OFFCURVE",
"380 63 CURVE SMOOTH",
"255 63 OFFCURVE",
"149 181 OFFCURVE",
"149 382 CURVE SMOOTH"
);
}
);
};
layerId = "93816207-4067-4C42-B3DC-B8F9D15DA403";
paths = (
{
closed = 1;
nodes = (
"66 125 OFFCURVE",
"215 5 OFFCURVE",
"384 -25 CURVE SMOOTH",
"447 -36 OFFCURVE",
"671 -63 OFFCURVE",
"725 -55 CURVE SMOOTH",
"738 -53 OFFCURVE",
"750 -48 OFFCURVE",
"750 -24 CURVE SMOOTH",
"750 -6 OFFCURVE",
"743 24 OFFCURVE",
"726 21 CURVE SMOOTH",
"655 8 OFFCURVE",
"644 -3 OFFCURVE",
"502 30 CURVE",
"618 100 OFFCURVE",
"672 247 OFFCURVE",
"672 372 CURVE SMOOTH",
"672 555 OFFCURVE",
"556 730 OFFCURVE",
"371 730 CURVE SMOOTH",
"194 730 OFFCURVE",
"66 571 OFFCURVE",
"66 356 CURVE SMOOTH"
);
},
{
closed = 1;
nodes = (
"149 553 OFFCURVE",
"226 660 OFFCURVE",
"353 660 CURVE SMOOTH",
"492 660 OFFCURVE",
"586 533 OFFCURVE",
"586 354 CURVE SMOOTH",
"586 197 OFFCURVE",
"514 63 OFFCURVE",
"380 63 CURVE SMOOTH",
"255 63 OFFCURVE",
"149 181 OFFCURVE",
"149 382 CURVE SMOOTH"
);
}
);
width = 746;
}
);
leftKerningGroup = O;
rightKerningGroup = O;
unicode = 0051;
},
{
glyphname = R;
lastChange = "2017-08-24 11:27:36 +0000";
layers = (
{
layerId = "93816207-4067-4C42-B3DC-B8F9D15DA403";
paths = (
{
closed = 1;
nodes = (
"576 719 OFFCURVE",
"427 737 OFFCURVE",
"248 737 CURVE SMOOTH",
"176 737 OFFCURVE",
"110 734 OFFCURVE",
"110 701 CURVE SMOOTH",
"110 0 LINE SMOOTH",
"110 -8 OFFCURVE",
"117 -12 OFFCURVE",
"129 -12 CURVE SMOOTH",
"151 -12 OFFCURVE",
"190 3 OFFCURVE",
"190 21 CURVE SMOOTH",
"190 330 LINE",
"383 284 OFFCURVE",
"576 348 OFFCURVE",
"576 545 CURVE SMOOTH"
);
},
{
closed = 1;
nodes = (
"342 334 OFFCURVE",
"190 385 CURVE",
"190 660 LINE",
"204 664 OFFCURVE",
"294 667 OFFCURVE",
"342 664 CURVE SMOOTH",
"471 656 OFFCURVE",
"494 594 OFFCURVE",
"494 537 CURVE SMOOTH",
"494 390 OFFCURVE"
);
},
{
closed = 1;
nodes = (
"320 330 LINE",
"432 150 OFFCURVE",
"447 134 OFFCURVE",
"516 5 CURVE SMOOTH",
"523 -8 OFFCURVE",
"548 -14 OFFCURVE",
"568 -8 CURVE SMOOTH",
"590 -1 OFFCURVE",
"597 18 OFFCURVE",
"589 33 CURVE",
"530 137 OFFCURVE",
"473 237 OFFCURVE",
"385 374 CURVE"
);
}
);
width = 603;
}
);
leftKerningGroup = H;
rightKerningGroup = R;
unicode = 0052;
},
{
glyphname = S;
lastChange = "2018-01-19 11:17:27 +0000";
layers = (
{
layerId = "93816207-4067-4C42-B3DC-B8F9D15DA403";
paths = (
{
closed = 1;
nodes = (
"155 -10 OFFCURVE",
"274 -10 CURVE SMOOTH",
"406 -10 OFFCURVE",
"505 72 OFFCURVE",
"505 196 CURVE SMOOTH",
"505 317 OFFCURVE",
"410 366 OFFCURVE",
"320 412 CURVE SMOOTH",
"260 443 OFFCURVE",
"185 452 OFFCURVE",
"185 558 CURVE SMOOTH",
"185 642 OFFCURVE",
"233 681 OFFCURVE",
"289 681 CURVE SMOOTH",
"370 681 OFFCURVE",
"396 599 OFFCURVE",
"431 599 CURVE SMOOTH",
"446 599 OFFCURVE",
"478 614 OFFCURVE",
"478 641 CURVE SMOOTH",
"478 676 OFFCURVE",
"422 742 OFFCURVE",
"327 742 CURVE SMOOTH",
"222 742 OFFCURVE",
"111 661 OFFCURVE",
"111 530 CURVE SMOOTH",
"111 405 OFFCURVE",
"212 372 OFFCURVE",
"293 332 CURVE SMOOTH",
"348 305 OFFCURVE",
"416 263 OFFCURVE",
"416 176 CURVE SMOOTH",
"416 97 OFFCURVE",
"360 60 OFFCURVE",
"276 60 CURVE SMOOTH",
"185 60 OFFCURVE",
"161 104 OFFCURVE",
"120 154 CURVE SMOOTH",
"111 165 OFFCURVE",
"58 116 OFFCURVE",
"67 85 CURVE SMOOTH",
"76 56 OFFCURVE"
);
}
);
width = 582;
}
);
leftKerningGroup = S;
rightKerningGroup = S;
unicode = 0053;
},
{
color = 1;
glyphname = T;
lastChange = "2021-06-27 14:19:33 +0000";
layers = (
{
components = (
{
name = l;
transform = "{1, 0, 0, 0.8226, 146, -2}";
}
);
layerId = "93816207-4067-4C42-B3DC-B8F9D15DA403";
paths = (
{
closed = 1;
nodes = (
"32 695 OFFCURVE",
"7 640 OFFCURVE",
"12 639 CURVE SMOOTH",
"71 627 OFFCURVE",
"418 637 OFFCURVE",
"529 649 CURVE SMOOTH",
"538 650 OFFCURVE",
"559 718 OFFCURVE",
"554 718 CURVE SMOOTH",
"490 718 OFFCURVE",
"82 705 OFFCURVE",
"37 696 CURVE SMOOTH"
);
}
);
width = 566;
}
);
leftKerningGroup = T;
rightKerningGroup = T;
unicode = 0054;
},
{
glyphname = U;
lastChange = "2018-01-19 11:15:18 +0000";
layers = (
{
components = (
{
name = l;
transform = "{1, 0, 0, 0.8454, 421, 0}";
}
);
layerId = "93816207-4067-4C42-B3DC-B8F9D15DA403";
paths = (
{
closed = 1;
nodes = (
"551 140 OFFCURVE",
"523 112 CURVE SMOOTH",
"483 73 OFFCURVE",
"443 47 OFFCURVE",
"358 47 CURVE SMOOTH",
"219 47 OFFCURVE",
"179 116 OFFCURVE",
"179 227 CURVE SMOOTH",
"179 709 LINE SMOOTH",
"179 717 OFFCURVE",
"172 721 OFFCURVE",
"160 721 CURVE SMOOTH",
"133 721 OFFCURVE",
"99 703 OFFCURVE",
"99 689 CURVE SMOOTH",
"99 208 LINE SMOOTH",
"99 70 OFFCURVE",
"157 -10 OFFCURVE",
"344 -10 CURVE SMOOTH",
"448 -10 OFFCURVE",
"518 15 OFFCURVE",
"562 87 CURVE SMOOTH",
"576 109 OFFCURVE",
"576 120 OFFCURVE",
"575 129 CURVE SMOOTH",
"570 165 OFFCURVE"
);
}
);
width = 714;
}
);
leftKerningGroup = U;
rightKerningGroup = U;
unicode = 0055;
},
{
glyphname = V;
lastChange = "2017-08-24 11:44:22 +0000";
layers = (
{
layerId = "93816207-4067-4C42-B3DC-B8F9D15DA403";
paths = (
{
closed = 1;
nodes = (
"49 563 OFFCURVE",
"248 38 OFFCURVE",
"268 0 CURVE SMOOTH",
"273 -10 OFFCURVE",
"292 -13 OFFCURVE",
"314 -13 CURVE SMOOTH",
"336 -13 OFFCURVE",
"340 -13 OFFCURVE",
"352 0 CURVE",
"255 216 OFFCURVE",
"212 334 OFFCURVE",
"83 719 CURVE SMOOTH",
"80 728 OFFCURVE",
"71 731 OFFCURVE",
"62 728 CURVE SMOOTH",
"39 720 OFFCURVE",
"6 694 OFFCURVE",
"12 675 CURVE SMOOTH"
);
},
{
closed = 1;
nodes = (
"614 737 OFFCURVE",
"566 728 OFFCURVE",
"548 719 CURVE SMOOTH",
"546 718 OFFCURVE",
"540 718 OFFCURVE",
"531 702 CURVE SMOOTH",
"499 644 OFFCURVE",
"418 329 OFFCURVE",
"289 0 CURVE",
"301 -13 OFFCURVE",
"295 -13 OFFCURVE",
"317 -13 CURVE SMOOTH",
"339 -13 OFFCURVE",
"346 -10 OFFCURVE",
"351 0 CURVE SMOOTH",
"371 40 OFFCURVE",
"554 585 OFFCURVE",
"603 709 CURVE SMOOTH"
);
}
);
width = 616;
}
);
leftKerningGroup = V;
rightKerningGroup = V;
unicode = 0056;
},
{
glyphname = W;
lastChange = "2017-08-24 11:44:28 +0000";
layers = (
{
layerId = "93816207-4067-4C42-B3DC-B8F9D15DA403";
paths = (
{
closed = 1;
nodes = (
"900 676 OFFCURVE",
"900 702 CURVE SMOOTH",
"900 718 OFFCURVE",
"892 725 OFFCURVE",
"881 725 CURVE SMOOTH",
"860 725 OFFCURVE",
"848 718 OFFCURVE",
"835 695 CURVE SMOOTH",
"811 651 OFFCURVE",
"732 379 OFFCURVE",
"659 103 CURVE",
"600 277 OFFCURVE",
"548 420 OFFCURVE",
"482 595 CURVE",
"481 599 OFFCURVE",
"476 601 OFFCURVE",
"471 601 CURVE SMOOTH",
"457 601 OFFCURVE",
"428 597 OFFCURVE",
"415 570 CURVE SMOOTH",
"415 570 OFFCURVE",
"333 374 OFFCURVE",
"257 133 CURVE",
"223 237 OFFCURVE",
"189 401 OFFCURVE",
"83 719 CURVE SMOOTH",
"81 726 OFFCURVE",
"76 729 OFFCURVE",
"69 729 CURVE SMOOTH",
"67 729 OFFCURVE",
"65 729 OFFCURVE",
"62 728 CURVE SMOOTH",
"48 724 OFFCURVE",
"5 698 OFFCURVE",
"12 675 CURVE SMOOTH",
"44 563 OFFCURVE",
"202 8 OFFCURVE",
"208 0 CURVE SMOOTH",
"214 -7 OFFCURVE",
"237 -15 OFFCURVE",
"258 -15 CURVE SMOOTH",
"273 -15 OFFCURVE",
"287 -11 OFFCURVE",
"292 1 CURVE SMOOTH",
"308 35 OFFCURVE",
"392 303 OFFCURVE",
"449 461 CURVE",
"553 172 OFFCURVE",
"605 32 OFFCURVE",
"623 1 CURVE SMOOTH",
"631 -13 OFFCURVE",
"627 -14 OFFCURVE",
"655 -14 CURVE SMOOTH",
"674 -14 OFFCURVE",
"697 -13 OFFCURVE",
"703 0 CURVE",
"710 16 OFFCURVE"
);
}
);
width = 911;
}
);
leftKerningGroup = W;
rightKerningGroup = W;
unicode = 0057;
},
{
glyphname = X;
lastChange = "2017-08-24 11:27:36 +0000";
layers = (
{
background = {
paths = (
{
closed = 1;
nodes = (
"92 554 OFFCURVE",
"421 39 OFFCURVE",
"444 0 CURVE SMOOTH",
"450 -10 OFFCURVE",
"473 -13 OFFCURVE",
"496 -13 CURVE SMOOTH",
"523 -13 OFFCURVE",
"527 -13 OFFCURVE",
"542 0 CURVE",
"483 108 OFFCURVE",
"146 627 OFFCURVE",
"95 719 CURVE SMOOTH",
"90 728 OFFCURVE",
"80 731 OFFCURVE",
"70 728 CURVE SMOOTH",
"41 719 OFFCURVE",
"15 692 OFFCURVE",
"24 675 CURVE SMOOTH"
);
},
{
closed = 1;
nodes = (
"549 692 OFFCURVE",
"523 719 OFFCURVE",
"494 728 CURVE SMOOTH",
"484 731 OFFCURVE",
"474 728 OFFCURVE",
"469 719 CURVE SMOOTH",
"418 627 OFFCURVE",
"81 108 OFFCURVE",
"22 0 CURVE",
"37 -13 OFFCURVE",
"41 -13 OFFCURVE",
"68 -13 CURVE SMOOTH",
"91 -13 OFFCURVE",
"114 -10 OFFCURVE",
"120 0 CURVE SMOOTH",
"143 39 OFFCURVE",
"472 554 OFFCURVE",
"540 675 CURVE SMOOTH"
);
}
);
};
layerId = "93816207-4067-4C42-B3DC-B8F9D15DA403";
paths = (
{
closed = 1;
nodes = (
"92 554 OFFCURVE",
"411 39 OFFCURVE",
"434 0 CURVE SMOOTH",
"440 -10 OFFCURVE",
"463 -13 OFFCURVE",
"476 -13 CURVE SMOOTH",
"503 -13 OFFCURVE",
"507 -13 OFFCURVE",
"522 0 CURVE",
"463 108 OFFCURVE",
"146 627 OFFCURVE",
"95 719 CURVE SMOOTH",
"90 728 OFFCURVE",
"80 731 OFFCURVE",
"70 728 CURVE SMOOTH",
"41 719 OFFCURVE",
"15 692 OFFCURVE",
"24 675 CURVE SMOOTH"
);
},
{
closed = 1;
nodes = (
"565 730 OFFCURVE",
"510 732 OFFCURVE",
"482 718 CURVE SMOOTH",
"464 709 OFFCURVE",
"461 701 OFFCURVE",
"454 693 CURVE SMOOTH",
"392 622 OFFCURVE",
"81 148 OFFCURVE",
"22 0 CURVE",
"37 -13 OFFCURVE",
"41 -13 OFFCURVE",
"68 -13 CURVE SMOOTH",
"91 -13 OFFCURVE",
"117 -11 OFFCURVE",
"120 0 CURVE SMOOTH",
"143 79 OFFCURVE",
"479 612 OFFCURVE",
"554 715 CURVE SMOOTH"
);
}
);
width = 577;
}
);
leftKerningGroup = X;
rightKerningGroup = X;
unicode = 0058;
},
{
color = 1;
glyphname = Y;
lastChange = "2021-06-27 14:07:43 +0000";
layers = (
{
layerId = "93816207-4067-4C42-B3DC-B8F9D15DA403";
paths = (
{
closed = 1;
nodes = (
"331 347 LINE",
"427 504 OFFCURVE",
"537 663 OFFCURVE",
"575 715 CURVE SMOOTH",
"586 730 OFFCURVE",
"531 732 OFFCURVE",
"503 718 CURVE SMOOTH",
"485 709 OFFCURVE",
"482 701 OFFCURVE",
"475 693 CURVE SMOOTH",
"448 662 OFFCURVE",
"372 552 OFFCURVE",
"290 426 CURVE",
"211 558 OFFCURVE",
"138 679 OFFCURVE",
"116 719 CURVE SMOOTH",
"111 728 OFFCURVE",
"101 731 OFFCURVE",
"91 728 CURVE SMOOTH",
"62 719 OFFCURVE",
"36 692 OFFCURVE",
"45 675 CURVE SMOOTH",
"76 620 OFFCURVE",
"168 485 OFFCURVE",
"251 349 CURVE"
);
},
{
closed = 1;
nodes = (
"251 328 LINE",
"251 249 OFFCURVE",
"251 82 OFFCURVE",
"251 0 CURVE SMOOTH",
"251 -31 OFFCURVE",
"331 -3 OFFCURVE",
"331 26 CURVE SMOOTH",
"331 158 OFFCURVE",
"331 317 OFFCURVE",
"331 396 CURVE SMOOTH",
"331 430 OFFCURVE",
"251 402 OFFCURVE",
"251 375 CURVE"
);
}
);
width = 580;
}
);
leftKerningGroup = Y;
rightKerningGroup = Y;
unicode = 0059;
},
{
glyphname = Z;
lastChange = "2017-08-24 11:27:36 +0000";
layers = (
{
layerId = "93816207-4067-4C42-B3DC-B8F9D15DA403";
paths = (
{
closed = 1;
nodes = (
"72 -2 OFFCURVE",
"136 6 OFFCURVE",
"164 6 CURVE SMOOTH",
"206 6 OFFCURVE",
"375 -11 OFFCURVE",
"491 7 CURVE",
"500 8 OFFCURVE",
"530 62 OFFCURVE",
"525 69 CURVE SMOOTH",
"518 79 OFFCURVE",
"515 81 OFFCURVE",
"507 81 CURVE SMOOTH",
"484 81 OFFCURVE",
"428 64 OFFCURVE",
"293 59 CURVE SMOOTH",
"262 58 OFFCURVE",
"252 58 OFFCURVE",
"170 62 CURVE",
"164 62 OFFCURVE",
"162 67 OFFCURVE",
"164 71 CURVE",
"262 244 OFFCURVE",
"491 681 OFFCURVE",
"502 712 CURVE SMOOTH",
"506 723 OFFCURVE",
"498 727 OFFCURVE",
"479 727 CURVE SMOOTH",
"345 725 OFFCURVE",
"110 722 OFFCURVE",
"101 718 CURVE SMOOTH",
"95 715 OFFCURVE",
"71 663 OFFCURVE",
"76 661 CURVE",
"107 651 OFFCURVE",
"184 647 OFFCURVE",
"400 667 CURVE",
"406 668 OFFCURVE",
"410 661 OFFCURVE",
"407 656 CURVE",
"44 -2 LINE"
);
}
);
width = 570;
}
);
leftKerningGroup = Z;
rightKerningGroup = Z;
unicode = 005A;
},
{
color = 1;
glyphname = a;
lastChange = "2021-06-27 14:17:27 +0000";
layers = (
{
anchors = (
{
name = bottom;
position = "{298, 0}";
},
{
name = ogonek;
position = "{540, 10}";
},
{
name = top;
position = "{298, 500}";
}
);
background = {
paths = (
{
closed = 1;
nodes = (
"9 329 OFFCURVE",
"9 403 OFFCURVE",
"9 261 CURVE SMOOTH",
"9 177 OFFCURVE",
"9 92 OFFCURVE",
"9 8 CURVE SMOOTH",
"9 -3 OFFCURVE",
"18 -8 OFFCURVE",
"30 -8 CURVE SMOOTH",
"55 -8 OFFCURVE",
"93 12 OFFCURVE",
"93 33 CURVE SMOOTH",
"93 156 OFFCURVE",
"93 491 OFFCURVE",
"93 491 CURVE SMOOTH",
"93 419 OFFCURVE",
"93 393 OFFCURVE",
"93 393 CURVE SMOOTH",
"93 393 OFFCURVE",
"93 446 OFFCURVE",
"93 498 CURVE SMOOTH",
"93 509 OFFCURVE",
"84 514 OFFCURVE",
"72 514 CURVE SMOOTH",
"47 514 OFFCURVE",
"9 494 OFFCURVE",
"9 473 CURVE SMOOTH"
);
},
{
closed = 1;
nodes = (
"71 367 OFFCURVE",
"86 382 CURVE SMOOTH",
"90 386 OFFCURVE",
"95 391 OFFCURVE",
"100 395 CURVE SMOOTH",
"143 429 OFFCURVE",
"189 447 OFFCURVE",
"228 447 CURVE SMOOTH",
"276 447 OFFCURVE",
"314 421 OFFCURVE",
"324 365 CURVE SMOOTH",
"333 315 OFFCURVE",
"335 221 OFFCURVE",
"335 123 CURVE SMOOTH",
"335 81 OFFCURVE",
"335 39 OFFCURVE",
"335 0 CURVE SMOOTH",
"335 -12 OFFCURVE",
"344 -16 OFFCURVE",
"356 -16 CURVE SMOOTH",
"380 -16 OFFCURVE",
"418 4 OFFCURVE",
"418 25 CURVE SMOOTH",
"418 137 OFFCURVE",
"415 309 OFFCURVE",
"408 383 CURVE SMOOTH",
"400 464 OFFCURVE",
"335 504 OFFCURVE",
"256 504 CURVE SMOOTH",
"211 504 OFFCURVE",
"162 491 OFFCURVE",
"117 466 CURVE SMOOTH",
"92 452 OFFCURVE",
"70 434 OFFCURVE",
"46 416 CURVE SMOOTH",
"33 406 OFFCURVE",
"10 389 OFFCURVE",
"10 373 CURVE SMOOTH",
"10 359 OFFCURVE",
"25 354 OFFCURVE",
"39 356 CURVE SMOOTH",
"60 359 OFFCURVE"
);
}
);
};
hints = (
{
origin = "{0, 6}";
target = "{0, 7}";
type = Cap;
name = _cap.tail;
}
);
layerId = "93816207-4067-4C42-B3DC-B8F9D15DA403";
paths = (
{
closed = 1;
nodes = (
"169 441 OFFCURVE",
"189 460 OFFCURVE",
"254 460 CURVE SMOOTH",
"425 460 OFFCURVE",
"425 322 OFFCURVE",
"425 274 CURVE SMOOTH",
"425 0 LINE",
"505 0 LINE",
"505 278 LINE SMOOTH",
"505 340 OFFCURVE",
"505 511 OFFCURVE",
"288 511 CURVE SMOOTH",
"159 511 OFFCURVE",
"87 450 OFFCURVE",
"87 424 CURVE SMOOTH",
"87 412 OFFCURVE",
"106 410 OFFCURVE",
"116 410 CURVE SMOOTH",
"123 410 OFFCURVE",
"129 411 OFFCURVE",
"133 414 CURVE SMOOTH"
);
},
{
closed = 1;
nodes = (
"39 40 OFFCURVE",
"101 -17 OFFCURVE",
"202 -17 CURVE SMOOTH",
"271 -17 OFFCURVE",
"374 10 OFFCURVE",
"424 43 CURVE SMOOTH",
"430 47 OFFCURVE",
"455 63 OFFCURVE",
"455 83 CURVE SMOOTH",
"455 97 OFFCURVE",
"443 110 OFFCURVE",
"434 106 CURVE SMOOTH",
"422 101 OFFCURVE",
"353 42 OFFCURVE",
"256 42 CURVE SMOOTH",
"174 42 OFFCURVE",
"114 84 OFFCURVE",
"114 147 CURVE SMOOTH",
"114 204 OFFCURVE",
"164 274 OFFCURVE",
"300 269 CURVE SMOOTH",
"381 266 OFFCURVE",
"438 252 OFFCURVE",
"459 252 CURVE SMOOTH",
"473 252 OFFCURVE",
"475 255 OFFCURVE",
"481 276 CURVE SMOOTH",
"490 309 OFFCURVE",
"305 319 OFFCURVE",
"258 317 CURVE SMOOTH",
"125 311 OFFCURVE",
"39 220 OFFCURVE",
"39 123 CURVE SMOOTH"
);
}
);
width = 574;
}
);
leftKerningGroup = a;
rightKerningGroup = n;
unicode = 0061;
},
{
color = 1;
glyphname = b;
lastChange = "2021-06-27 14:03:10 +0000";
layers = (
{
background = {
paths = (
{
closed = 1;
nodes = (
"390 510 OFFCURVE",
"245 510 CURVE SMOOTH",
"81 510 OFFCURVE",
"-32 388 OFFCURVE",
"-32 232 CURVE SMOOTH",
"-32 85 OFFCURVE",
"69 -10 OFFCURVE",
"212 -10 CURVE SMOOTH",
"375 -10 OFFCURVE",
"500 115 OFFCURVE",
"500 269 CURVE SMOOTH",
"500 414 OFFCURVE"
);
},
{
closed = 1;
nodes = (
"362 50 OFFCURVE",
"253 50 CURVE SMOOTH",
"144 50 OFFCURVE",
"42 148 OFFCURVE",
"42 274 CURVE SMOOTH",
"42 383 OFFCURVE",
"118 450 OFFCURVE",
"219 450 CURVE SMOOTH",
"331 450 OFFCURVE",
"423 367 OFFCURVE",
"423 246 CURVE SMOOTH",
"423 148 OFFCURVE"
);
}
);
};
components = (
{
alignment = -1;
name = l;
transform = "{1, 0, 0, 1, -15, 0}";
},
{
name = _bbowl;
transform = "{1, 0, 0, 1, -58, 0}";
}
);
layerId = "93816207-4067-4C42-B3DC-B8F9D15DA403";
width = 577;
}
);
leftKerningGroup = l;
rightKerningGroup = l;
unicode = 0062;
},
{
color = 1;
glyphname = c;
lastChange = "2021-06-27 14:04:31 +0000";
layers = (
{
background = {
paths = (
{
closed = 1;
nodes = (
"579 414 OFFCURVE",
"469 510 OFFCURVE",
"324 510 CURVE SMOOTH",
"160 510 OFFCURVE",
"47 388 OFFCURVE",
"47 232 CURVE SMOOTH",
"47 85 OFFCURVE",
"148 -10 OFFCURVE",
"291 -10 CURVE SMOOTH",
"454 -10 OFFCURVE",
"579 115 OFFCURVE",
"579 269 CURVE SMOOTH"
);
},
{
closed = 1;
nodes = (
"502 148 OFFCURVE",
"441 50 OFFCURVE",
"332 50 CURVE SMOOTH",
"223 50 OFFCURVE",
"121 148 OFFCURVE",
"121 274 CURVE SMOOTH",
"121 383 OFFCURVE",
"197 450 OFFCURVE",
"298 450 CURVE SMOOTH",
"410 450 OFFCURVE",
"502 367 OFFCURVE",
"502 246 CURVE SMOOTH"
);
}
);
};
layerId = "93816207-4067-4C42-B3DC-B8F9D15DA403";
paths = (
{
closed = 1;
nodes = (
"456 354 OFFCURVE",
"461 353 OFFCURVE",
"467 353 CURVE SMOOTH",
"491 353 OFFCURVE",
"521 375 OFFCURVE",
"516 388 CURVE",
"500 450 OFFCURVE",
"436 511 OFFCURVE",
"326 511 CURVE SMOOTH",
"174 511 OFFCURVE",
"47 394 OFFCURVE",
"47 235 CURVE SMOOTH",
"47 113 OFFCURVE",
"125 -10 OFFCURVE",
"286 -10 CURVE SMOOTH",
"426 -10 OFFCURVE",
"488 84 OFFCURVE",
"496 111 CURVE SMOOTH",
"499 121 OFFCURVE",
"496 127 OFFCURVE",
"486 127 CURVE SMOOTH",
"473 127 OFFCURVE",
"462 117 OFFCURVE",
"448 104 CURVE SMOOTH",
"425 82 OFFCURVE",
"392 51 OFFCURVE",
"324 51 CURVE SMOOTH",
"203 51 OFFCURVE",
"125 146 OFFCURVE",
"125 263 CURVE SMOOTH",
"125 381 OFFCURVE",
"201 453 OFFCURVE",
"307 453 CURVE SMOOTH",
"373 453 OFFCURVE",
"432 425 OFFCURVE",
"452 356 CURVE"
);
}
);
width = 550;
}
);
leftKerningGroup = o;
rightKerningGroup = c;
unicode = 0063;
},
{
color = 1;
glyphname = d;
lastChange = "2018-01-19 11:21:08 +0000";
layers = (
{
background = {
paths = (
{
closed = 1;
nodes = (
"70 -249 OFFCURVE",
"183 -302 OFFCURVE",
"283 -302 CURVE SMOOTH",
"404 -302 OFFCURVE",
"503 -224 OFFCURVE",
"503 -137 CURVE SMOOTH",
"503 105 LINE",
"499 484 LINE SMOOTH",
"499 495 OFFCURVE",
"488 499 OFFCURVE",
"479 500 CURVE SMOOTH",
"471 501 OFFCURVE",
"434 504 OFFCURVE",
"393 504 CURVE SMOOTH",
"167 504 OFFCURVE",
"60 412 OFFCURVE",
"60 201 CURVE SMOOTH",
"60 63 OFFCURVE",
"103 7 OFFCURVE",
"222 -9 CURVE SMOOTH",
"229 -10 OFFCURVE",
"238 -11 OFFCURVE",
"250 -11 CURVE SMOOTH",
"316 -11 OFFCURVE",
"389 20 OFFCURVE",
"421 40 CURVE",
"421 5 OFFCURVE",
"421 -117 OFFCURVE",
"421 -117 CURVE SMOOTH",
"421 -207 OFFCURVE",
"350 -253 OFFCURVE",
"264 -246 CURVE SMOOTH",
"209 -242 OFFCURVE",
"164 -217 OFFCURVE",
"142 -179 CURVE SMOOTH",
"135 -166 OFFCURVE",
"136 -169 OFFCURVE",
"132 -170 CURVE SMOOTH",
"123 -172 OFFCURVE",
"79 -184 OFFCURVE",
"76 -208 CURVE SMOOTH"
);
},
{
closed = 1;
nodes = (
"180 48 OFFCURVE",
"133 126 OFFCURVE",
"142 260 CURVE SMOOTH",
"150 369 OFFCURVE",
"191 435 OFFCURVE",
"305 435 CURVE SMOOTH",
"342 435 OFFCURVE",
"420 428 OFFCURVE",
"420 419 CURVE SMOOTH",
"422 96 LINE",
"391 70 OFFCURVE",
"320 48 OFFCURVE",
"271 48 CURVE SMOOTH"
);
}
);
};
components = (
{
alignment = -1;
name = l;
transform = "{1, 0, 0, 1, 359, 0}";
},
{
name = _dbowl;
transform = "{1, 0, 0, 1, -17, 0}";
}
);
layerId = "93816207-4067-4C42-B3DC-B8F9D15DA403";
width = 587;
}
);
leftKerningGroup = l;
rightKerningGroup = l;
unicode = 0064;
},
{
color = 1;
glyphname = e;
lastChange = "2018-01-19 11:20:22 +0000";
layers = (
{
background = {
paths = (
{
closed = 1;
nodes = (
"483 340 OFFCURVE",
"528 369 OFFCURVE",
"522 385 CURVE",
"506 448 OFFCURVE",
"440 511 OFFCURVE",
"322 508 CURVE SMOOTH",
"176 504 OFFCURVE",
"53 388 OFFCURVE",
"53 233 CURVE SMOOTH",
"53 105 OFFCURVE",
"140 -22 OFFCURVE",
"307 -12 CURVE SMOOTH",
"439 -4 OFFCURVE",
"495 83 OFFCURVE",
"502 108 CURVE SMOOTH",
"508 131 OFFCURVE",
"483 131 OFFCURVE",
"454 101 CURVE SMOOTH",
"437 83 OFFCURVE",
"407 48 OFFCURVE",
"333 48 CURVE SMOOTH",
"208 48 OFFCURVE",
"131 142 OFFCURVE",
"131 263 CURVE SMOOTH",
"131 377 OFFCURVE",
"207 450 OFFCURVE",
"313 450 CURVE SMOOTH",
"379 450 OFFCURVE",
"438 422 OFFCURVE",
"458 353 CURVE"
);
}
);
};
layerId = "93816207-4067-4C42-B3DC-B8F9D15DA403";
paths = (
{
closed = 1;
nodes = (
"48 107 OFFCURVE",
"112 -10 OFFCURVE",
"283 -10 CURVE SMOOTH",
"444 -10 OFFCURVE",
"504 84 OFFCURVE",
"512 112 CURVE SMOOTH",
"515 122 OFFCURVE",
"513 126 OFFCURVE",
"505 126 CURVE SMOOTH",
"493 126 OFFCURVE",
"480 116 OFFCURVE",
"463 104 CURVE SMOOTH",
"441 88 OFFCURVE",
"396 50 OFFCURVE",
"315 50 CURVE SMOOTH",
"199 50 OFFCURVE",
"126 127 OFFCURVE",
"126 250 CURVE SMOOTH",
"126 261 LINE",
"171 264 OFFCURVE",
"207 266 OFFCURVE",
"320 272 CURVE SMOOTH",
"470 280 OFFCURVE",
"478 282 OFFCURVE",
"488 282 CURVE SMOOTH",
"537 282 OFFCURVE",
"535 335 OFFCURVE",
"535 349 CURVE",
"531 418 OFFCURVE",
"475 515 OFFCURVE",
"329 515 CURVE SMOOTH",
"137 515 OFFCURVE",
"48 358 OFFCURVE",
"48 222 CURVE SMOOTH"
);
},
{
closed = 1;
nodes = (
"153 383 OFFCURVE",
"202 458 OFFCURVE",
"309 458 CURVE SMOOTH",
"409 458 OFFCURVE",
"455 392 OFFCURVE",
"467 339 CURVE",
"444 337 OFFCURVE",
"430 335 OFFCURVE",
"351 330 CURVE SMOOTH",
"259 324 OFFCURVE",
"163 318 OFFCURVE",
"134 310 CURVE"
);
}
);
width = 575;
}
);
leftKerningGroup = o;
rightKerningGroup = e;
unicode = 0065;
},
{
glyphname = f;
lastChange = "2017-08-24 11:41:35 +0000";
layers = (
{
hints = (
{
origin = "{0, 17}";
target = "{0, 18}";
type = Cap;
name = _cap.tail;
}
);
layerId = "93816207-4067-4C42-B3DC-B8F9D15DA403";
paths = (
{
closed = 1;
nodes = (
"341 757 OFFCURVE",
"398 773 OFFCURVE",
"388 784 CURVE",
"382 805 OFFCURVE",
"342 856 OFFCURVE",
"270 856 CURVE SMOOTH",
"170 856 OFFCURVE",
"117 757 OFFCURVE",
"117 585 CURVE SMOOTH",
"117 573 OFFCURVE",
"117 534 OFFCURVE",
"117 534 CURVE SMOOTH",
"117 415 OFFCURVE",
"119 399 OFFCURVE",
"120 188 CURVE SMOOTH",
"120 120 OFFCURVE",
"121 62 OFFCURVE",
"119 0 CURVE",
"198 0 LINE",
"196 30 OFFCURVE",
"198 148 OFFCURVE",
"198 148 CURVE SMOOTH",
"198 325 OFFCURVE",
"199 427 OFFCURVE",
"199 657 CURVE",
"199 711 OFFCURVE",
"206 804 OFFCURVE",
"261 804 CURVE SMOOTH",
"290 804 OFFCURVE",
"311 778 OFFCURVE",
"321 759 CURVE"
);
},
{
closed = 1;
nodes = (
"2 464 OFFCURVE",
"-8 440 OFFCURVE",
"-12 425 CURVE SMOOTH",
"-14 419 OFFCURVE",
"1 415 OFFCURVE",
"4 415 CURVE",
"16 415 OFFCURVE",
"302 435 OFFCURVE",
"359 439 CURVE SMOOTH",
"405 442 OFFCURVE",
"426 499 OFFCURVE",
"388 503 CURVE SMOOTH",
"352 506 OFFCURVE",
"64 479 OFFCURVE",
"26 470 CURVE SMOOTH"
);
}
);
width = 426;
}
);
leftKerningGroup = f;
rightKerningGroup = f;
unicode = 0066;
},
{
color = 1;
glyphname = g;
lastChange = "2018-01-19 11:16:47 +0000";
layers = (
{
anchors = (
{
name = bottom;
position = "{504, 22}";
},
{
name = top;
position = "{502, 500}";
}
);
background = {
paths = (
{
closed = 1;
nodes = (
"460 125 OFFCURVE",
"446 112 CURVE SMOOTH",
"412 81 OFFCURVE",
"356 47 OFFCURVE",
"284 47 CURVE SMOOTH",
"199 47 OFFCURVE",
"147 96 OFFCURVE",
"147 177 CURVE SMOOTH",
"147 219 OFFCURVE",
"147 451 OFFCURVE",
"147 490 CURVE SMOOTH",
"147 502 OFFCURVE",
"138 506 OFFCURVE",
"126 506 CURVE SMOOTH",
"102 506 OFFCURVE",
"64 486 OFFCURVE",
"64 465 CURVE",
"64 151 LINE",
"64 49 OFFCURVE",
"136 -10 OFFCURVE",
"257 -10 CURVE SMOOTH",
"346 -10 OFFCURVE",
"409 22 OFFCURVE",
"486 88 CURVE SMOOTH",
"507 106 OFFCURVE",
"522 120 OFFCURVE",
"522 129 CURVE SMOOTH",
"522 135 OFFCURVE",
"515 138 OFFCURVE",
"501 138 CURVE SMOOTH",
"475 138 OFFCURVE"
);
}
);
};
components = (
{
name = idotless;
transform = "{1, 0, 0, 1, 343, 0}";
},
{
name = _dbowl;
transform = "{1, 0, 0, 1, -16, 0}";
}
);
layerId = "93816207-4067-4C42-B3DC-B8F9D15DA403";
paths = (
{
closed = 1;
nodes = (
"66 -249 OFFCURVE",
"138 -308 OFFCURVE",
"279 -308 CURVE SMOOTH",
"394 -308 OFFCURVE",
"478 -269 OFFCURVE",
"509 -148 CURVE SMOOTH",
"522 -97 OFFCURVE",
"522 -43 OFFCURVE",
"522 25 CURVE",
"442 25 LINE",
"442 -87 OFFCURVE",
"436 -114 OFFCURVE",
"431 -142 CURVE SMOOTH",
"418 -212 OFFCURVE",
"353 -252 OFFCURVE",
"272 -252 CURVE SMOOTH",
"227 -252 OFFCURVE",
"168 -240 OFFCURVE",
"133 -185 CURVE SMOOTH",
"128 -178 OFFCURVE",
"129 -175 OFFCURVE",
"123 -175 CURVE SMOOTH",
"109 -175 OFFCURVE",
"66 -194 OFFCURVE",
"66 -218 CURVE SMOOTH"
);
}
);
width = 606;
}
);
leftKerningGroup = o;
rightKerningGroup = j;
unicode = 0067;
},
{
glyphname = idotless;
lastChange = "2017-08-24 11:29:26 +0000";
layers = (
{
anchors = (
{
name = bottom;
position = "{139, 0}";
},
{
name = ogonek;
position = "{234, 10}";
},
{
name = top;
position = "{139, 500}";
}
);
hints = (
{
origin = "{0, 2}";
target = "{0, 3}";
type = Cap;
name = _cap.tail;
},
{
origin = "{0, 0}";
target = "{0, 1}";
type = Cap;
name = _cap.tail;
}
);
layerId = "93816207-4067-4C42-B3DC-B8F9D15DA403";
paths = (
{
closed = 1;
nodes = (
"99 0 LINE",
"179 0 LINE",
"179 500 LINE",
"99 500 LINE"
);
}
);
width = 278;
}
);
leftKerningGroup = idotless;
rightKerningGroup = idotless;
unicode = 0131;
},
{
glyphname = jdotless;
lastChange = "2017-08-24 11:37:02 +0000";
layers = (
{
anchors = (
{
name = bottom;
position = "{198, 22}";
},
{
name = top;
position = "{196, 500}";
}
);
background = {
paths = (
{
closed = 0;
nodes = (
"124 -117 LINE SMOOTH",
"124 -207 OFFCURVE",
"53 -252 OFFCURVE",
"-33 -246 CURVE SMOOTH",
"-88 -242 OFFCURVE",
"-134 -218 OFFCURVE",
"-155 -179 CURVE SMOOTH",
"-162 -166 OFFCURVE",
"-161 -169 OFFCURVE",
"-165 -170 CURVE SMOOTH",
"-174 -172 OFFCURVE",
"-218 -184 OFFCURVE",
"-221 -208 CURVE SMOOTH",
"-226 -249 OFFCURVE",
"-114 -302 OFFCURVE",
"-14 -302 CURVE SMOOTH",
"107 -302 OFFCURVE",
"206 -224 OFFCURVE",
"206 -137 CURVE SMOOTH"
);
}
);
};
components = (
{
name = idotless;
transform = "{1, 0, 0, 1, 37, 0}";
}
);
layerId = "93816207-4067-4C42-B3DC-B8F9D15DA403";
paths = (
{
closed = 1;
nodes = (
"-220 -256 OFFCURVE",
"-131 -310 OFFCURVE",
"-7 -308 CURVE SMOOTH",
"96 -306 OFFCURVE",
"191 -256 OFFCURVE",
"207 -149 CURVE SMOOTH",
"212 -116 OFFCURVE",
"216 -18 OFFCURVE",
"216 25 CURVE",
"136 25 LINE",
"136 -87 OFFCURVE",
"130 -114 OFFCURVE",
"125 -142 CURVE SMOOTH",
"113 -210 OFFCURVE",
"72 -252 OFFCURVE",
"-21 -252 CURVE SMOOTH",
"-67 -252 OFFCURVE",
"-115 -238 OFFCURVE",
"-153 -185 CURVE SMOOTH",
"-158 -178 OFFCURVE",
"-157 -175 OFFCURVE",
"-161 -175 CURVE SMOOTH",
"-180 -175 OFFCURVE",
"-220 -198 OFFCURVE",
"-220 -215 CURVE SMOOTH"
);
}
);
width = 330;
}
);
unicode = 0237;
},
{
glyphname = k;
lastChange = "2018-01-19 19:55:02 +0000";
layers = (
{
components = (
{
name = l;
transform = "{1, 0, 0, 1, -15, 0}";
}
);
layerId = "93816207-4067-4C42-B3DC-B8F9D15DA403";
paths = (
{
closed = 1;
nodes = (
"401 0 LINE",
"407 -24 OFFCURVE",
"508 -20 OFFCURVE",
"500 0 CURVE",
"275 290 LINE SMOOTH",
"247 326 OFFCURVE",
"205 272 OFFCURVE",
"215 240 CURVE"
);
},
{
closed = 1;
nodes = (
"271 375 OFFCURVE",
"182 287 OFFCURVE",
"108 211 CURVE SMOOTH",
"84 186 OFFCURVE",
"130 147 OFFCURVE",
"150 166 CURVE SMOOTH",
"242 254 OFFCURVE",
"342 361 OFFCURVE",
"460 489 CURVE SMOOTH",
"485 516 OFFCURVE",
"413 530 OFFCURVE",
"386 500 CURVE SMOOTH"
);
}
);
width = 526;
}
);
leftKerningGroup = h;
rightKerningGroup = k;
unicode = 006B;
},
{
color = 1;
glyphname = l;
lastChange = "2018-01-19 11:16:47 +0000";
layers = (
{
hints = (
{
origin = "{0, 2}";
target = "{0, 3}";
type = Cap;
name = _cap.tail;
},
{
origin = "{0, 0}";
type = Cap;
name = _cap.tail;
}
);
layerId = "93816207-4067-4C42-B3DC-B8F9D15DA403";
paths = (
{
closed = 1;
nodes = (
"84 0 LINE",
"164 0 LINE",
"164 840 LINE",
"84 840 LINE"
);
}
);
width = 247;
}
);
leftKerningGroup = l;
rightKerningGroup = l;
unicode = 006C;
},
{
color = 1;
glyphname = m;
lastChange = "2018-01-19 11:16:47 +0000";
layers = (
{
background = {
paths = (
{
closed = 1;
nodes = (
"435 338 OFFCURVE",
"564 367 OFFCURVE",
"611 367 CURVE",
"644 367 OFFCURVE",
"649 297 OFFCURVE",
"649 294 CURVE SMOOTH",
"649 -1 LINE",
"739 0 LINE",
"749 133 OFFCURVE",
"753 403 OFFCURVE",
"742 454 CURVE SMOOTH",
"739 468 OFFCURVE",
"718 512 OFFCURVE",
"691 512 CURVE SMOOTH",
"654 512 OFFCURVE",
"421 404 OFFCURVE",
"416 377 CURVE SMOOTH",
"406 325 LINE"
);
}
);
};
hints = (
{
origin = "{0, 10}";
target = "{0, 11}";
type = Cap;
name = _cap.tail;
},
{
origin = "{0, 5}";
target = "{0, 6}";
type = Cap;
name = _cap.tail;
},
{
origin = "{1, 11}";
target = "{1, 12}";
type = Cap;
name = _cap.tail;
},
{
origin = "{2, 11}";
target = "{2, 12}";
type = Cap;
name = _cap.tail;
}
);
layerId = "93816207-4067-4C42-B3DC-B8F9D15DA403";
paths = (
{
closed = 1;
nodes = (
"83 367 OFFCURVE",
"83 401 OFFCURVE",
"83 268 CURVE SMOOTH",
"83 189 OFFCURVE",
"83 82 OFFCURVE",
"83 0 CURVE",
"161 0 LINE",
"161 132 OFFCURVE",
"161 322 OFFCURVE",
"161 458 CURVE",
"161 500 LINE",
"83 500 LINE"
);
},
{
closed = 1;
nodes = (
"131 362 OFFCURVE",
"145 375 OFFCURVE",
"158 388 CURVE SMOOTH",
"192 419 OFFCURVE",
"230 453 OFFCURVE",
"302 453 CURVE SMOOTH",
"367 453 OFFCURVE",
"419 404 OFFCURVE",
"419 323 CURVE SMOOTH",
"419 281 OFFCURVE",
"420 39 OFFCURVE",
"420 0 CURVE",
"498 0 LINE",
"499 349 LINE",
"499 451 OFFCURVE",
"430 510 OFFCURVE",
"329 510 CURVE SMOOTH",
"240 510 OFFCURVE",
"197 478 OFFCURVE",
"120 412 CURVE SMOOTH",
"100 394 OFFCURVE",
"86 380 OFFCURVE",
"86 371 CURVE SMOOTH",
"86 365 OFFCURVE",
"93 362 OFFCURVE",
"106 362 CURVE SMOOTH"
);
},
{
closed = 1;
nodes = (
"471 362 OFFCURVE",
"485 375 OFFCURVE",
"498 388 CURVE SMOOTH",
"531 421 OFFCURVE",
"570 453 OFFCURVE",
"642 453 CURVE SMOOTH",
"707 453 OFFCURVE",
"759 404 OFFCURVE",
"759 323 CURVE SMOOTH",
"759 281 OFFCURVE",
"760 39 OFFCURVE",
"760 0 CURVE",
"838 0 LINE",
"839 349 LINE",
"839 451 OFFCURVE",
"770 510 OFFCURVE",
"669 510 CURVE SMOOTH",
"580 510 OFFCURVE",
"535 480 OFFCURVE",
"460 412 CURVE SMOOTH",
"440 394 OFFCURVE",
"426 380 OFFCURVE",
"426 371 CURVE SMOOTH",
"426 365 OFFCURVE",
"433 362 OFFCURVE",
"446 362 CURVE SMOOTH"
);
}
);
width = 912;
}
);
leftKerningGroup = n;
rightKerningGroup = n;
unicode = 006D;
},
{
color = 1;
glyphname = o;
lastChange = "2021-06-27 14:05:23 +0000";
layers = (
{
background = {
paths = (
{
closed = 1;
nodes = (
"452 488 OFFCURVE",
"384 508 OFFCURVE",
"324 508 CURVE SMOOTH",
"185 508 OFFCURVE",
"38 403 OFFCURVE",
"38 245 CURVE SMOOTH",
"38 170 OFFCURVE",
"62 90 OFFCURVE",
"121 44 CURVE SMOOTH",
"167 7 OFFCURVE",
"227 -13 OFFCURVE",
"290 -13 CURVE SMOOTH",
"451 -13 OFFCURVE",
"578 101 OFFCURVE",
"580 270 CURVE SMOOTH",
"581 341 OFFCURVE",
"559 396 OFFCURVE",
"507 441 CURVE SMOOTH"
);
},
{
closed = 1;
nodes = (
"438 80 OFFCURVE",
"386 45 OFFCURVE",
"326 45 CURVE SMOOTH",
"206 45 OFFCURVE",
"118 154 OFFCURVE",
"118 272 CURVE SMOOTH",
"118 363 OFFCURVE",
"194 450 OFFCURVE",
"293 450 CURVE SMOOTH",
"404 450 OFFCURVE",
"503 364 OFFCURVE",
"503 246 CURVE SMOOTH",
"503 214 OFFCURVE",
"495 181 OFFCURVE",
"477 149 CURVE SMOOTH"
);
}
);
};
layerId = "93816207-4067-4C42-B3DC-B8F9D15DA403";
paths = (
{
closed = 1;
nodes = (
"580 411 OFFCURVE",
"474 511 OFFCURVE",
"325 511 CURVE SMOOTH",
"166 511 OFFCURVE",
"48 393 OFFCURVE",
"48 232 CURVE SMOOTH",
"48 88 OFFCURVE",
"146 -10 OFFCURVE",
"292 -10 CURVE SMOOTH",
"454 -10 OFFCURVE",
"580 113 OFFCURVE",
"580 269 CURVE SMOOTH"
);
},
{
closed = 1;
nodes = (
"503 134 OFFCURVE",
"430 50 OFFCURVE",
"333 50 CURVE SMOOTH",
"220 50 OFFCURVE",
"122 154 OFFCURVE",
"122 274 CURVE SMOOTH",
"122 379 OFFCURVE",
"195 451 OFFCURVE",
"299 451 CURVE SMOOTH",
"417 451 OFFCURVE",
"503 365 OFFCURVE",
"503 246 CURVE SMOOTH"
);
}
);
width = 626;
}
);
leftKerningGroup = o;
rightKerningGroup = o;
unicode = 006F;
},
{
glyphname = p;
lastChange = "2018-01-19 11:15:18 +0000";
layers = (
{
background = {
paths = (
{
closed = 1;
nodes = (
"109 362 OFFCURVE",
"123 375 OFFCURVE",
"136 388 CURVE SMOOTH",
"169 421 OFFCURVE",
"228 453 OFFCURVE",
"300 453 CURVE SMOOTH",
"385 453 OFFCURVE",
"437 404 OFFCURVE",
"437 323 CURVE SMOOTH",
"437 281 OFFCURVE",
"438 39 OFFCURVE",
"438 0 CURVE",
"516 0 LINE",
"517 349 LINE",
"517 451 OFFCURVE",
"448 510 OFFCURVE",
"327 510 CURVE SMOOTH",
"238 510 OFFCURVE",
"173 480 OFFCURVE",
"98 412 CURVE SMOOTH",
"78 394 OFFCURVE",
"64 380 OFFCURVE",
"64 371 CURVE SMOOTH",
"64 365 OFFCURVE",
"71 362 OFFCURVE",
"84 362 CURVE SMOOTH"
);
}
);
};
components = (
{
alignment = -1;
name = l;
transform = "{1, 0, 0, 0.9, -15, -252}";
},
{
name = _bbowl;
transform = "{1, 0, 0, 1, -42, 0}";
}
);
layerId = "93816207-4067-4C42-B3DC-B8F9D15DA403";
width = 589;
}
);
leftKerningGroup = h;
rightKerningGroup = l;
unicode = 0070;
},
{
color = 1;
glyphname = r;
lastChange = "2018-01-06 11:21:27 +0000";
layers = (
{
components = (
{
name = idotless;
transform = "{1, 0, 0, 1, -17, 0}";
}
);
layerId = "93816207-4067-4C42-B3DC-B8F9D15DA403";
paths = (
{
closed = 1;
nodes = (
"382 420 OFFCURVE",
"403 420 CURVE SMOOTH",
"420 420 OFFCURVE",
"424 436 OFFCURVE",
"427 460 CURVE SMOOTH",
"432 499 OFFCURVE",
"374 508 OFFCURVE",
"336 508 CURVE SMOOTH",
"235 508 OFFCURVE",
"157 446 OFFCURVE",
"157 395 CURVE",
"157 307 LINE",
"157 411 OFFCURVE",
"269 446 OFFCURVE",
"317 446 CURVE SMOOTH",
"359 446 OFFCURVE"
);
}
);
width = 454;
}
);
leftKerningGroup = n;
rightKerningGroup = r;
unicode = 0072;
},
{
color = 1;
glyphname = s;
lastChange = "2018-03-05 22:35:19 +0000";
layers = (
{
background = {
paths = (
{
closed = 1;
nodes = (
"427 510 OFFCURVE",
"282 510 CURVE SMOOTH",
"118 510 OFFCURVE",
"5 388 OFFCURVE",
"5 232 CURVE SMOOTH",
"5 85 OFFCURVE",
"106 -10 OFFCURVE",
"249 -10 CURVE SMOOTH",
"412 -10 OFFCURVE",
"537 115 OFFCURVE",
"537 269 CURVE SMOOTH",
"537 414 OFFCURVE"
);
},
{
closed = 1;
nodes = (
"399 50 OFFCURVE",
"290 50 CURVE SMOOTH",
"181 50 OFFCURVE",
"79 148 OFFCURVE",
"79 274 CURVE SMOOTH",
"79 383 OFFCURVE",
"155 450 OFFCURVE",
"256 450 CURVE SMOOTH",
"368 450 OFFCURVE",
"460 367 OFFCURVE",
"460 246 CURVE SMOOTH",
"460 148 OFFCURVE"
);
}
);
};
layerId = "93816207-4067-4C42-B3DC-B8F9D15DA403";
paths = (
{
closed = 1;
nodes = (
"110 -10 OFFCURVE",
"235 -10 CURVE SMOOTH",
"366 -10 OFFCURVE",
"461 44 OFFCURVE",
"461 136 CURVE SMOOTH",
"461 220 OFFCURVE",
"380 248 OFFCURVE",
"280 285 CURVE SMOOTH",
"198 315 OFFCURVE",
"138 330 OFFCURVE",
"138 385 CURVE SMOOTH",
"138 444 OFFCURVE",
"205 460 OFFCURVE",
"284 450 CURVE SMOOTH",
"338 443 OFFCURVE",
"353 429 OFFCURVE",
"366 415 CURVE SMOOTH",
"375 405 OFFCURVE",
"431 415 OFFCURVE",
"431 440 CURVE SMOOTH",
"431 464 OFFCURVE",
"376 510 OFFCURVE",
"276 510 CURVE SMOOTH",
"160 510 OFFCURVE",
"65 448 OFFCURVE",
"65 366 CURVE SMOOTH",
"65 291 OFFCURVE",
"144 259 OFFCURVE",
"253 221 CURVE SMOOTH",
"308 202 OFFCURVE",
"380 180 OFFCURVE",
"380 122 CURVE SMOOTH",
"380 70 OFFCURVE",
"321 46 OFFCURVE",
"238 46 CURVE SMOOTH",
"145 46 OFFCURVE",
"139 76 OFFCURVE",
"100 110 CURVE SMOOTH",
"91 118 OFFCURVE",
"40 78 OFFCURVE",
"47 56 CURVE SMOOTH",
"52 39 OFFCURVE"
);
}
);
width = 499;
}
);
leftKerningGroup = s;
rightKerningGroup = s;
unicode = 0073;
},
{
color = 1;
glyphname = t;
lastChange = "2021-06-27 14:17:48 +0000";
layers = (
{
hints = (
{
origin = "{0, 17}";
target = "{0, 18}";
type = Cap;
name = _cap.tail;
}
);
layerId = "93816207-4067-4C42-B3DC-B8F9D15DA403";
paths = (
{
closed = 1;
nodes = (
"195 -12 OFFCURVE",
"294 -12 CURVE SMOOTH",
"361 -12 OFFCURVE",
"415 10 OFFCURVE",
"443 55 CURVE SMOOTH",
"448 63 OFFCURVE",
"451 70 OFFCURVE",
"451 73 CURVE SMOOTH",
"451 76 OFFCURVE",
"449 78 OFFCURVE",
"443 78 CURVE SMOOTH",
"419 78 OFFCURVE",
"379 41 OFFCURVE",
"316 41 CURVE SMOOTH",
"274 41 OFFCURVE",
"243 58 OFFCURVE",
"243 154 CURVE",
"243 612 LINE",
"163 612 LINE",
"163 159 LINE",
"163 37 OFFCURVE"
);
},
{
closed = 1;
nodes = (
"27 455 OFFCURVE",
"21 446 OFFCURVE",
"21 431 CURVE SMOOTH",
"21 418 OFFCURVE",
"25 415 OFFCURVE",
"37 415 CURVE",
"44 415 OFFCURVE",
"307 422 OFFCURVE",
"395 431 CURVE SMOOTH",
"441 436 OFFCURVE",
"454 440 OFFCURVE",
"454 465 CURVE SMOOTH",
"454 484 OFFCURVE",
"447 493 OFFCURVE",
"418 493 CURVE SMOOTH",
"397 493 OFFCURVE",
"154 488 OFFCURVE",
"61 464 CURVE SMOOTH"
);
}
);
width = 484;
}
);
leftKerningGroup = t;
rightKerningGroup = t;
unicode = 0074;
},
{
color = 1;
glyphname = v;
lastChange = "2018-01-19 11:16:47 +0000";
layers = (
{
layerId = "93816207-4067-4C42-B3DC-B8F9D15DA403";
paths = (
{
closed = 1;
nodes = (
"63 354 OFFCURVE",
"179 94 OFFCURVE",
"229 0 CURVE SMOOTH",
"234 -10 OFFCURVE",
"250 -14 OFFCURVE",
"265 -14 CURVE SMOOTH",
"284 -14 OFFCURVE",
"294 -7 OFFCURVE",
"308 26 CURVE SMOOTH",
"511 500 LINE SMOOTH",
"521 523 OFFCURVE",
"460 511 OFFCURVE",
"450 489 CURVE SMOOTH",
"271 106 LINE",
"209 220 OFFCURVE",
"163 334 OFFCURVE",
"97 500 CURVE SMOOTH",
"93 511 OFFCURVE",
"82 516 OFFCURVE",
"74 516 CURVE SMOOTH",
"57 516 OFFCURVE",
"29 496 OFFCURVE",
"34 475 CURVE SMOOTH"
);
}
);
width = 540;
}
);
leftKerningGroup = v;
rightKerningGroup = v;
unicode = 0076;
},
{
glyphname = w;
lastChange = "2017-08-24 11:27:36 +0000";
layers = (
{
layerId = "93816207-4067-4C42-B3DC-B8F9D15DA403";
paths = (
{
closed = 1;
nodes = (
"36 393 OFFCURVE",
"151 37 OFFCURVE",
"163 0 CURVE SMOOTH",
"166 -10 OFFCURVE",
"179 -14 OFFCURVE",
"194 -14 CURVE SMOOTH",
"213 -14 OFFCURVE",
"232 -7 OFFCURVE",
"241 26 CURVE SMOOTH",
"374 500 LINE SMOOTH",
"380 523 OFFCURVE",
"330 511 OFFCURVE",
"323 489 CURVE SMOOTH",
"206 116 LINE",
"181 196 OFFCURVE",
"116 398 OFFCURVE",
"84 500 CURVE SMOOTH",
"81 511 OFFCURVE",
"66 518 OFFCURVE",
"52 516 CURVE SMOOTH",
"33 514 OFFCURVE",
"6 496 OFFCURVE",
"12 475 CURVE SMOOTH"
);
},
{
closed = 1;
nodes = (
"330 452 OFFCURVE",
"338 428 OFFCURVE",
"478 0 CURVE SMOOTH",
"481 -10 OFFCURVE",
"496 -14 OFFCURVE",
"514 -14 CURVE SMOOTH",
"545 -14 OFFCURVE",
"557 -3 OFFCURVE",
"565 26 CURVE SMOOTH",
"698 500 LINE SMOOTH",
"704 523 OFFCURVE",
"643 511 OFFCURVE",
"637 489 CURVE SMOOTH",
"526 105 LINE",
"456 286 OFFCURVE",
"424 393 OFFCURVE",
"394 500 CURVE SMOOTH",
"391 511 OFFCURVE",
"382 516 OFFCURVE",
"370 516 CURVE SMOOTH",
"347 516 OFFCURVE",
"315 498 OFFCURVE",
"322 475 CURVE SMOOTH"
);
}
);
width = 709;
}
);
leftKerningGroup = w;
rightKerningGroup = w;
unicode = 0077;
},
{
glyphname = x;
lastChange = "2017-08-24 11:39:11 +0000";
layers = (
{
background = {
paths = (
{
closed = 1;
nodes = (
"179 67 OFFCURVE",
"401 301 OFFCURVE",
"513 500 CURVE SMOOTH",
"522 516 OFFCURVE",
"484 530 OFFCURVE",
"462 519 CURVE SMOOTH",
"460 518 OFFCURVE",
"287 300 OFFCURVE",
"67 51 CURVE SMOOTH",
"37 17 LINE",
"33 9 OFFCURVE",
"38 1 OFFCURVE",
"48 -3 CURVE SMOOTH",
"65 -10 OFFCURVE",
"84 -19 OFFCURVE",
"116 10 CURVE SMOOTH"
);
},
{
closed = 1;
nodes = (
"59 524 OFFCURVE",
"54 474 CURVE SMOOTH",
"53 467 OFFCURVE",
"120 413 OFFCURVE",
"143 390 CURVE SMOOTH",
"199 333 OFFCURVE",
"360 110 OFFCURVE",
"471 -5 CURVE",
"476 -12 OFFCURVE",
"485 -12 OFFCURVE",
"494 -6 CURVE",
"519 11 OFFCURVE",
"533 36 OFFCURVE",
"524 50 CURVE",
"447 143 OFFCURVE",
"302 327 OFFCURVE",
"199 449 CURVE SMOOTH",
"168 486 OFFCURVE",
"140 500 OFFCURVE",
"107 500 CURVE SMOOTH",
"47 500 OFFCURVE"
);
}
);
};
layerId = "93816207-4067-4C42-B3DC-B8F9D15DA403";
paths = (
{
closed = 1;
nodes = (
"179 67 OFFCURVE",
"401 301 OFFCURVE",
"513 500 CURVE SMOOTH",
"520 512 OFFCURVE",
"500 523 OFFCURVE",
"480 523 CURVE SMOOTH",
"474 523 OFFCURVE",
"467 522 OFFCURVE",
"462 519 CURVE SMOOTH",
"460 518 OFFCURVE",
"287 300 OFFCURVE",
"67 51 CURVE SMOOTH",
"37 17 LINE",
"33 9 OFFCURVE",
"38 1 OFFCURVE",
"48 -3 CURVE SMOOTH",
"56 -6 OFFCURVE",
"64 -10 OFFCURVE",
"75 -10 CURVE SMOOTH",
"86 -10 OFFCURVE",
"99 -5 OFFCURVE",
"116 10 CURVE SMOOTH"
);
},
{
closed = 1;
nodes = (
"5 505 OFFCURVE",
"54 474 CURVE SMOOTH",
"150 413 OFFCURVE",
"463 -39 OFFCURVE",
"471 -5 CURVE",
"474 -9 OFFCURVE",
"477 -10 OFFCURVE",
"481 -10 CURVE SMOOTH",
"485 -10 OFFCURVE",
"490 -9 OFFCURVE",
"494 -6 CURVE",
"514 7 OFFCURVE",
"527 26 OFFCURVE",
"527 40 CURVE SMOOTH",
"527 44 OFFCURVE",
"526 47 OFFCURVE",
"524 50 CURVE",
"456 133 OFFCURVE",
"275 360 OFFCURVE",
"199 449 CURVE SMOOTH",
"166 487 OFFCURVE",
"151 506 OFFCURVE",
"107 506 CURVE SMOOTH",
"55 506 OFFCURVE"
);
}
);
width = 549;
}
);
leftKerningGroup = x;
rightKerningGroup = x;
unicode = 0078;
},
{
glyphname = z;
lastChange = "2017-08-24 11:27:36 +0000";
layers = (
{
layerId = "93816207-4067-4C42-B3DC-B8F9D15DA403";
paths = (
{
closed = 1;
nodes = (
"66 -6 OFFCURVE",
"124 1 OFFCURVE",
"148 1 CURVE SMOOTH",
"175 1 OFFCURVE",
"252 -4 OFFCURVE",
"324 -6 CURVE SMOOTH",
"369 -7 OFFCURVE",
"425 -7 OFFCURVE",
"440 0 CURVE SMOOTH",
"457 8 OFFCURVE",
"497 56 OFFCURVE",
"485 68 CURVE SMOOTH",
"483 70 OFFCURVE",
"479 71 OFFCURVE",
"472 71 CURVE SMOOTH",
"442 71 OFFCURVE",
"379 50 OFFCURVE",
"258 55 CURVE SMOOTH",
"210 57 OFFCURVE",
"188 54 OFFCURVE",
"170 66 CURVE",
"184 88 OFFCURVE",
"493 477 OFFCURVE",
"493 504 CURVE SMOOTH",
"493 507 OFFCURVE",
"488 510 OFFCURVE",
"482 510 CURVE SMOOTH",
"469 510 OFFCURVE",
"390 498 OFFCURVE",
"312 498 CURVE SMOOTH",
"262 498 OFFCURVE",
"175 503 OFFCURVE",
"117 503 CURVE SMOOTH",
"99 503 OFFCURVE",
"56 479 OFFCURVE",
"56 453 CURVE SMOOTH",
"56 431 OFFCURVE",
"97 437 OFFCURVE",
"209 439 CURVE SMOOTH",
"302 441 OFFCURVE",
"322 443 OFFCURVE",
"364 450 CURVE",
"350 422 OFFCURVE",
"33 29 OFFCURVE",
"33 0 CURVE SMOOTH",
"33 -3 OFFCURVE",
"36 -6 OFFCURVE",
"48 -6 CURVE SMOOTH"
);
}
);
width = 526;
}
);
leftKerningGroup = z;
rightKerningGroup = z;
unicode = 007A;
},
{
glyphname = f.swsh;
lastChange = "2017-08-24 11:27:36 +0000";
layers = (
{
layerId = "93816207-4067-4C42-B3DC-B8F9D15DA403";
paths = (
{
closed = 1;
nodes = (
"404 773 OFFCURVE",
"461 789 OFFCURVE",
"451 800 CURVE",
"443 809 OFFCURVE",
"425 866 OFFCURVE",
"363 871 CURVE SMOOTH",
"291 877 OFFCURVE",
"226 807 OFFCURVE",
"200 721 CURVE SMOOTH",
"137 515 OFFCURVE",
"242 -55 OFFCURVE",
"124 -102 CURVE SMOOTH",
"103 -110 OFFCURVE",
"89 -82 OFFCURVE",
"78 -60 CURVE SMOOTH",
"75 -54 OFFCURVE",
"67 -44 OFFCURVE",
"62 -55 CURVE SMOOTH",
"60 -59 OFFCURVE",
"18 -122 OFFCURVE",
"15 -128 CURVE SMOOTH",
"2 -154 OFFCURVE",
"23 -180 OFFCURVE",
"62 -180 CURVE SMOOTH",
"100 -180 OFFCURVE",
"178 -166 OFFCURVE",
"221 -61 CURVE SMOOTH",
"266 49 OFFCURVE",
"259 226 OFFCURVE",
"259 310 CURVE SMOOTH",
"259 420 OFFCURVE",
"250 510 OFFCURVE",
"262 643 CURVE SMOOTH",
"267 697 OFFCURVE",
"282 804 OFFCURVE",
"334 806 CURVE SMOOTH",
"368 807 OFFCURVE",
"367 784 OFFCURVE",
"384 775 CURVE"
);
},
{
closed = 1;
nodes = (
"72 448 OFFCURVE",
"52 404 OFFCURVE",
"57 403 CURVE SMOOTH",
"117 391 OFFCURVE",
"238 418 OFFCURVE",
"350 424 CURVE SMOOTH",
"369 425 OFFCURVE",
"394 482 OFFCURVE",
"379 483 CURVE SMOOTH",
"323 487 OFFCURVE",
"132 472 OFFCURVE",
"77 450 CURVE SMOOTH"
);
}
);
width = 441;
}
);
leftKerningGroup = f.swsh;
rightKerningGroup = f.swsh;
},
{
glyphname = f_f;
lastChange = "2018-01-19 11:13:02 +0000";
layers = (
{
hints = (
{
origin = "{1, 17}";
target = "{1, 18}";
type = Cap;
name = _cap.tail;
},
{
origin = "{2, 17}";
target = "{2, 18}";
type = Cap;
name = _cap.tail;
}
);
layerId = "93816207-4067-4C42-B3DC-B8F9D15DA403";
paths = (
{
closed = 1;
nodes = (
"5 453 OFFCURVE",
"-12 446 OFFCURVE",
"-12 430 CURVE SMOOTH",
"-12 415 OFFCURVE",
"2 415 OFFCURVE",
"4 415 CURVE",
"47 415 OFFCURVE",
"74 420 OFFCURVE",
"705 439 CURVE SMOOTH",
"725 440 OFFCURVE",
"748 497 OFFCURVE",
"734 503 CURVE SMOOTH",
"709 514 OFFCURVE",
"181 503 OFFCURVE",
"29 460 CURVE SMOOTH"
);
},
{
closed = 1;
nodes = (
"641 757 OFFCURVE",
"698 773 OFFCURVE",
"688 784 CURVE",
"682 805 OFFCURVE",
"642 856 OFFCURVE",
"570 856 CURVE SMOOTH",
"470 856 OFFCURVE",
"417 757 OFFCURVE",
"417 585 CURVE SMOOTH",
"417 573 OFFCURVE",
"417 534 OFFCURVE",
"417 534 CURVE SMOOTH",
"417 419 OFFCURVE",
"419 400 OFFCURVE",
"420 188 CURVE SMOOTH",
"420 120 OFFCURVE",
"421 62 OFFCURVE",
"419 0 CURVE",
"498 0 LINE",
"496 30 OFFCURVE",
"498 148 OFFCURVE",
"498 148 CURVE SMOOTH",
"498 325 OFFCURVE",
"499 432 OFFCURVE",
"499 657 CURVE",
"499 711 OFFCURVE",
"506 804 OFFCURVE",
"561 804 CURVE SMOOTH",
"590 804 OFFCURVE",
"611 778 OFFCURVE",
"621 759 CURVE"
);
},
{
closed = 1;
nodes = (
"339 757 OFFCURVE",
"396 773 OFFCURVE",
"386 784 CURVE",
"380 805 OFFCURVE",
"340 856 OFFCURVE",
"268 856 CURVE SMOOTH",
"168 856 OFFCURVE",
"115 757 OFFCURVE",
"115 585 CURVE SMOOTH",
"115 573 OFFCURVE",
"115 534 OFFCURVE",
"115 534 CURVE SMOOTH",
"115 419 OFFCURVE",
"117 400 OFFCURVE",
"118 188 CURVE SMOOTH",
"118 120 OFFCURVE",
"119 62 OFFCURVE",
"117 0 CURVE",
"196 0 LINE",
"194 30 OFFCURVE",
"196 148 OFFCURVE",
"196 148 CURVE SMOOTH",
"196 325 OFFCURVE",
"197 432 OFFCURVE",
"197 657 CURVE",
"197 711 OFFCURVE",
"204 804 OFFCURVE",
"259 804 CURVE SMOOTH",
"288 804 OFFCURVE",
"309 778 OFFCURVE",
"319 759 CURVE"
);
}
);
width = 756;
}
);
leftKerningGroup = f;
rightKerningGroup = f;
},
{
glyphname = f_t;
lastChange = "2018-01-19 11:13:26 +0000";
layers = (
{
hints = (
{
origin = "{2, 18}";
target = "{2, 19}";
type = Cap;
name = _cap.tail;
},
{
origin = "{0, 19}";
target = "{0, 20}";
type = Cap;
name = _cap.tail;
}
);
layerId = "93816207-4067-4C42-B3DC-B8F9D15DA403";
paths = (
{
closed = 1;
nodes = (
"512 -7 OFFCURVE",
"588 -7 CURVE SMOOTH",
"669 -7 OFFCURVE",
"706 44 OFFCURVE",
"725 89 CURVE SMOOTH",
"728 96 OFFCURVE",
"714 106 OFFCURVE",
"702 106 CURVE SMOOTH",
"696 106 OFFCURVE",
"693 104 OFFCURVE",
"689 100 CURVE SMOOTH",
"671 82 OFFCURVE",
"626 64 OFFCURVE",
"604 64 CURVE SMOOTH",
"570 64 OFFCURVE",
"562 108 OFFCURVE",
"562 170 CURVE SMOOTH",
"562 242 OFFCURVE",
"573 574 OFFCURVE",
"566 612 CURVE",
"486 612 LINE",
"484 113 LINE SMOOTH",
"484 37 OFFCURVE"
);
},
{
closed = 1;
nodes = (
"8 454 OFFCURVE",
"-12 447 OFFCURVE",
"-12 430 CURVE SMOOTH",
"-12 415 OFFCURVE",
"2 415 OFFCURVE",
"4 415 CURVE SMOOTH",
"17 415 OFFCURVE",
"24 414 OFFCURVE",
"53 414 CURVE SMOOTH",
"110 414 OFFCURVE",
"335 413 OFFCURVE",
"755 439 CURVE SMOOTH",
"771 440 OFFCURVE",
"788 474 OFFCURVE",
"788 494 CURVE SMOOTH",
"788 499 OFFCURVE",
"787 502 OFFCURVE",
"783 503 CURVE SMOOTH",
"778 504 OFFCURVE",
"748 507 OFFCURVE",
"691 507 CURVE SMOOTH",
"546 507 OFFCURVE",
"153 494 OFFCURVE",
"29 460 CURVE SMOOTH"
);
},
{
closed = 1;
nodes = (
"349 757 OFFCURVE",
"406 773 OFFCURVE",
"396 784 CURVE",
"390 807 OFFCURVE",
"345 856 OFFCURVE",
"271 856 CURVE SMOOTH",
"166 856 OFFCURVE",
"115 757 OFFCURVE",
"115 585 CURVE SMOOTH",
"115 534 LINE SMOOTH",
"115 419 OFFCURVE",
"118 400 OFFCURVE",
"118 188 CURVE SMOOTH",
"118 154 OFFCURVE",
"118 123 OFFCURVE",
"118 92 CURVE SMOOTH",
"118 61 OFFCURVE",
"118 31 OFFCURVE",
"117 0 CURVE",
"196 0 LINE",
"195 10 OFFCURVE",
"195 30 OFFCURVE",
"195 52 CURVE SMOOTH",
"195 96 OFFCURVE",
"196 148 OFFCURVE",
"196 148 CURVE",
"196 325 OFFCURVE",
"197 432 OFFCURVE",
"197 657 CURVE SMOOTH",
"197 715 OFFCURVE",
"203 804 OFFCURVE",
"263 804 CURVE SMOOTH",
"296 804 OFFCURVE",
"321 776 OFFCURVE",
"329 759 CURVE"
);
},
{
closed = 0;
nodes = (
"307 736 LINE"
);
}
);
width = 818;
}
);
leftKerningGroup = f;
leftMetricsKey = f;
rightKerningGroup = t;
rightMetricsKey = t;
},
{
glyphname = t_t;
lastChange = "2018-01-19 11:13:26 +0000";
layers = (
{
layerId = "93816207-4067-4C42-B3DC-B8F9D15DA403";
paths = (
{
closed = 1;
nodes = (
"335 -25 OFFCURVE",
"385 39 OFFCURVE",
"403 85 CURVE SMOOTH",
"406 93 OFFCURVE",
"385 111 OFFCURVE",
"367 96 CURVE SMOOTH",
"352 83 OFFCURVE",
"325 62 OFFCURVE",
"295 61 CURVE SMOOTH",
"262 59 OFFCURVE",
"244 82 OFFCURVE",
"241 114 CURVE SMOOTH",
"234 179 OFFCURVE",
"254 601 OFFCURVE",
"241 612 CURVE",
"241 646 OFFCURVE",
"164 618 OFFCURVE",
"164 587 CURVE",
"162 109 LINE",
"162 22 OFFCURVE",
"200 -4 OFFCURVE",
"241 -10 CURVE SMOOTH"
);
},
{
closed = 1;
nodes = (
"740 -24 OFFCURVE",
"791 39 OFFCURVE",
"808 85 CURVE SMOOTH",
"811 93 OFFCURVE",
"790 111 OFFCURVE",
"772 96 CURVE SMOOTH",
"757 83 OFFCURVE",
"730 62 OFFCURVE",
"700 61 CURVE SMOOTH",
"667 60 OFFCURVE",
"649 82 OFFCURVE",
"646 114 CURVE SMOOTH",
"640 179 OFFCURVE",
"659 601 OFFCURVE",
"646 612 CURVE",
"646 646 OFFCURVE",
"569 618 OFFCURVE",
"569 587 CURVE",
"567 109 LINE",
"567 22 OFFCURVE",
"605 -4 OFFCURVE",
"646 -10 CURVE SMOOTH"
);
},
{
closed = 1;
nodes = (
"55 469 OFFCURVE",
"21 433 OFFCURVE",
"21 425 CURVE SMOOTH",
"20 421 OFFCURVE",
"36 415 OFFCURVE",
"37 415 CURVE",
"71 415 OFFCURVE",
"250 427 OFFCURVE",
"426 433 CURVE SMOOTH",
"600 439 OFFCURVE",
"760 439 OFFCURVE",
"816 439 CURVE SMOOTH",
"835 439 OFFCURVE",
"860 502 OFFCURVE",
"845 503 CURVE SMOOTH",
"818 505 OFFCURVE",
"602 504 OFFCURVE",
"434 498 CURVE SMOOTH",
"263 492 OFFCURVE",
"88 477 OFFCURVE",
"59 470 CURVE SMOOTH"
);
}
);
width = 880;
}
);
leftKerningGroup = t;
leftMetricsKey = t;
rightKerningGroup = t;
rightMetricsKey = t;
},
{
glyphname = zero;
lastChange = "2017-08-26 11:28:12 +0000";
layers = (
{
layerId = "93816207-4067-4C42-B3DC-B8F9D15DA403";
paths = (
{
closed = 1;
nodes = (
"605 184 OFFCURVE",
"605 372 CURVE SMOOTH",
"605 567 OFFCURVE",
"513 729 OFFCURVE",
"356 729 CURVE SMOOTH",
"186 729 OFFCURVE",
"77 538 OFFCURVE",
"77 316 CURVE SMOOTH",
"77 125 OFFCURVE",
"157 -9 OFFCURVE",
"322 -9 CURVE SMOOTH",
"520 -9 OFFCURVE"
);
},
{
closed = 1;
nodes = (
"448 56 OFFCURVE",
"335 56 CURVE SMOOTH",
"238 56 OFFCURVE",
"163 179 OFFCURVE",
"163 356 CURVE SMOOTH",
"163 517 OFFCURVE",
"225 665 OFFCURVE",
"342 665 CURVE SMOOTH",
"454 665 OFFCURVE",
"518 531 OFFCURVE",
"518 380 CURVE SMOOTH",
"518 222 OFFCURVE"
);
}
);
width = 681;
}
);
unicode = 0030;
},
{
glyphname = one;
lastChange = "2017-08-26 11:32:52 +0000";
layers = (
{
layerId = "93816207-4067-4C42-B3DC-B8F9D15DA403";
paths = (
{
closed = 1;
nodes = (
"19 624 OFFCURVE",
"19 592 CURVE SMOOTH",
"19 566 OFFCURVE",
"36 561 OFFCURVE",
"110 607 CURVE",
"110 496 OFFCURVE",
"110 458 OFFCURVE",
"110 338 CURVE SMOOTH",
"110 259 OFFCURVE",
"110 92 OFFCURVE",
"110 10 CURVE SMOOTH",
"110 0 OFFCURVE",
"118 -4 OFFCURVE",
"128 -4 CURVE SMOOTH",
"152 -4 OFFCURVE",
"190 16 OFFCURVE",
"190 36 CURVE SMOOTH",
"190 168 OFFCURVE",
"190 392 OFFCURVE",
"190 528 CURVE SMOOTH",
"190 607 OFFCURVE",
"190 627 OFFCURVE",
"190 706 CURVE SMOOTH",
"190 717 OFFCURVE",
"185 722 OFFCURVE",
"178 722 CURVE SMOOTH",
"147 722 OFFCURVE"
);
}
);
width = 300;
}
);
unicode = 0031;
},
{
glyphname = hyphen;
lastChange = "2017-08-24 11:27:36 +0000";
layers = (
{
layerId = "93816207-4067-4C42-B3DC-B8F9D15DA403";
paths = (
{
closed = 1;
nodes = (
"71 315 OFFCURVE",
"46 260 OFFCURVE",
"51 259 CURVE SMOOTH",
"110 247 OFFCURVE",
"237 253 OFFCURVE",
"348 265 CURVE SMOOTH",
"357 266 OFFCURVE",
"378 334 OFFCURVE",
"373 334 CURVE SMOOTH",
"309 334 OFFCURVE",
"121 325 OFFCURVE",
"76 316 CURVE SMOOTH"
);
}
);
width = 424;
}
);
leftKerningGroup = hyphen;
rightKerningGroup = hyphen;
unicode = 002D;
},
{
glyphname = dotaccentcomb;
lastChange = "2017-08-26 11:23:52 +0000";
layers = (
{
anchors = (
{
name = _top;
position = "{156, 500}";
},
{
name = top;
position = "{156, 704}";
}
);
layerId = "93816207-4067-4C42-B3DC-B8F9D15DA403";
paths = (
{
closed = 1;
nodes = (
"120 593 LINE SMOOTH",
"120 584 OFFCURVE",
"127 580 OFFCURVE",
"136 580 CURVE SMOOTH",
"158 580 OFFCURVE",
"192 596 OFFCURVE",
"192 614 CURVE SMOOTH",
"192 683 LINE SMOOTH",
"192 692 OFFCURVE",
"185 696 OFFCURVE",
"176 696 CURVE SMOOTH",
"154 696 OFFCURVE",
"120 680 OFFCURVE",
"120 662 CURVE SMOOTH"
);
}
);
width = 312;
}
);
leftKerningGroup = dotaccentcomb;
rightKerningGroup = dotaccentcomb;
unicode = 0307;
},
{
export = 0;
glyphname = _cap.tail;
lastChange = "2017-08-24 11:27:36 +0000";
layers = (
{
anchors = (
{
name = origin;
position = "{150, 0}";
}
);
layerId = "93816207-4067-4C42-B3DC-B8F9D15DA403";
paths = (
{
closed = 0;
nodes = (
"150 41 LINE",
"150 0 LINE SMOOTH",
"150 -9 OFFCURVE",
"158 -14 OFFCURVE",
"168 -14 CURVE SMOOTH",
"192 -14 OFFCURVE",
"230 4 OFFCURVE",
"230 24 CURVE SMOOTH",
"230 41 LINE"
);
}
);
width = 371;
}
);
leftKerningGroup = _cap.tail;
rightKerningGroup = _cap.tail;
},
{
export = 0;
glyphname = _bbowl;
lastChange = "2017-08-24 11:27:36 +0000";
layers = (
{
layerId = "93816207-4067-4C42-B3DC-B8F9D15DA403";
paths = (
{
closed = 1;
nodes = (
"191 412 LINE",
"207 425 OFFCURVE",
"266 452 OFFCURVE",
"344 452 CURVE SMOOTH",
"483 452 OFFCURVE",
"502 365 OFFCURVE",
"502 268 CURVE SMOOTH",
"502 102 OFFCURVE",
"429 50 OFFCURVE",
"315 50 CURVE SMOOTH",
"265 50 OFFCURVE",
"216 60 OFFCURVE",
"191 85 CURVE",
"191 9 LINE",
"212 0 OFFCURVE",
"267 -7 OFFCURVE",
"298 -7 CURVE SMOOTH",
"335 -7 OFFCURVE",
"375 3 OFFCURVE",
"406 14 CURVE SMOOTH",
"513 52 OFFCURVE",
"587 121 OFFCURVE",
"587 281 CURVE SMOOTH",
"587 437 OFFCURVE",
"516 511 OFFCURVE",
"375 511 CURVE SMOOTH",
"283 511 OFFCURVE",
"212 480 OFFCURVE",
"191 465 CURVE"
);
}
);
width = 600;
}
);
leftKerningGroup = _bbowl;
rightKerningGroup = _bbowl;
},
{
export = 0;
glyphname = _dbowl;
lastChange = "2018-01-06 11:03:58 +0000";
layers = (
{
layerId = "93816207-4067-4C42-B3DC-B8F9D15DA403";
paths = (
{
closed = 1;
nodes = (
"393 -10 OFFCURVE",
"467 33 OFFCURVE",
"489 50 CURVE SMOOTH",
"501 59 OFFCURVE",
"504 68 OFFCURVE",
"504 83 CURVE SMOOTH",
"504 91 OFFCURVE",
"503 124 OFFCURVE",
"503 132 CURVE SMOOTH",
"503 134 OFFCURVE",
"498 124 OFFCURVE",
"489 114 CURVE SMOOTH",
"453 72 OFFCURVE",
"368 40 OFFCURVE",
"295 47 CURVE SMOOTH",
"202 57 OFFCURVE",
"146 126 OFFCURVE",
"146 247 CURVE SMOOTH",
"146 403 OFFCURVE",
"243 445 OFFCURVE",
"349 445 CURVE SMOOTH",
"412 445 OFFCURVE",
"467 430 OFFCURVE",
"499 413 CURVE SMOOTH",
"532 395 OFFCURVE",
"553 415 OFFCURVE",
"526 442 CURVE SMOOTH",
"503 465 OFFCURVE",
"438 508 OFFCURVE",
"340 508 CURVE SMOOTH",
"181 508 OFFCURVE",
"63 396 OFFCURVE",
"63 229 CURVE SMOOTH",
"63 77 OFFCURVE",
"160 -10 OFFCURVE",
"272 -10 CURVE"
);
}
);
width = 600;
}
);
leftKerningGroup = _dbowl;
rightKerningGroup = _dbowl;
},
{
export = 0;
glyphname = _narm;
lastChange = "2017-08-24 11:27:36 +0000";
layers = (
{
hints = (
{
origin = "{0, 14}";
target = "{0, 15}";
type = Cap;
name = _cap.tail;
}
);
layerId = "93816207-4067-4C42-B3DC-B8F9D15DA403";
paths = (
{
closed = 1;
nodes = (
"169 362 OFFCURVE",
"182 378 OFFCURVE",
"193 388 CURVE SMOOTH",
"224 417 OFFCURVE",
"284 453 OFFCURVE",
"357 453 CURVE SMOOTH",
"397 453 OFFCURVE",
"429 442 OFFCURVE",
"453 422 CURVE SMOOTH",
"485 395 OFFCURVE",
"494 357 OFFCURVE",
"494 312 CURVE SMOOTH",
"494 290 OFFCURVE",
"495 39 OFFCURVE",
"495 0 CURVE",
"575 0 LINE",
"576 349 LINE",
"576 451 OFFCURVE",
"500 510 OFFCURVE",
"393 510 CURVE SMOOTH",
"322 510 OFFCURVE",
"227 484 OFFCURVE",
"154 413 CURVE SMOOTH",
"135 394 OFFCURVE",
"121 377 OFFCURVE",
"121 370 CURVE SMOOTH",
"121 365 OFFCURVE",
"129 362 OFFCURVE",
"141 362 CURVE SMOOTH"
);
}
);
width = 600;
}
);
leftKerningGroup = _narm;
rightKerningGroup = _narm;
},
